<?xml version="1.0" encoding="utf-8"?>
<!-- Generator: Adobe Illustrator 19.0.0, SVG Export Plug-In . SVG Version: 6.00 Build 0)  -->
<svg version="1.1" id="Layer_1" xmlns="http://www.w3.org/2000/svg" xmlns:xlink="http://www.w3.org/1999/xlink" x="0px" y="0px"
	 viewBox="0 0 258 255.4" style="enable-background:new 0 0 258 255.4;" xml:space="preserve">
<style type="text/css">
	.st0{fill:#054A4A;}
	.st1{fill:#074B4B;}
	.st2{fill:#14615B;}
	.st3{fill:#1A827D;}
	.st4{fill:#FFFFFF;stroke:#FFFFFF;stroke-width:2;stroke-miterlimit:10;}
</style>
<path id="XMLID_88_" class="st0" d="M136.6,1.2c4.8-0.1,9.5,0.6,14.1,1.5c26.5,4.8,49.3,16.7,68.2,35.8
	c18.2,18.5,29.7,40.6,34.1,66.1c4.7,27.7,0.4,54.1-12.5,79c-0.3,0.7-0.7,1.3-1.1,2c-3,4.9-9.2,6.5-14.2,3.8c-5-2.7-7-8.9-4.3-14
	c3.2-6.1,6-12.5,8.1-19.1c11.3-35.9,1.7-75.9-24.8-102.8C188.9,38.3,170.9,28,149.8,24c-35.4-6.7-66.7,2.1-93.3,26.6
	c-16.7,15.4-27,34.7-31,57.1c-4,22.6-0.7,44.3,9.6,64.9c0.5,1,1.1,2,1.6,3c2.5,5.1,0.6,11.1-4.3,13.8c-5,2.7-11.3,1.1-14.2-3.7
	c-1.1-1.7-1.9-3.6-2.8-5.4c-6.2-12.6-10.2-25.9-11.7-39.8c-4.2-39.7,7.7-74,35.6-102.5c18.2-18.6,40.5-30.1,66.2-35
	c5.2-1,10.4-1.8,15.7-1.8c1.2-0.1,2.6,0.5,3.7-0.4c3,0,6,0,9,0C134.6,1.6,135.6,1.1,136.6,1.2z"/>
<rect id="XMLID_84_" x="73.5" y="217.6" class="st1" width="109" height="12"/>
<path id="XMLID_22_" class="st1" d="M88.2,220.8c0,17.7-14.4,32.1-32.1,32.1s-32.1-14.4-32.1-32.1s14.4-32.1,32.1-32.1
	S88.2,203,88.2,220.8z M56.1,203.9c-9.3,0-16.8,7.5-16.8,16.8s7.5,16.8,16.8,16.8s16.8-7.5,16.8-16.8S65.4,203.9,56.1,203.9z"/>
<path id="XMLID_26_" class="st1" d="M231.6,223.3c0,17.7-14.4,32.1-32.1,32.1s-32.1-14.4-32.1-32.1s14.4-32.1,32.1-32.1
	S231.6,205.5,231.6,223.3z M199.5,206.4c-9.3,0-16.8,7.5-16.8,16.8c0,9.3,7.5,16.8,16.8,16.8c9.3,0,16.8-7.5,16.8-16.8
	C216.3,214,208.8,206.4,199.5,206.4z"/>
<g id="XMLID_16_">
	<path id="XMLID_66_" class="st2" d="M56,103.4c4.6,1,8.9,4.1,11.4,8.5c1,1.7,1.6,3.5,1.9,5.3c5-0.2,9.2-2.1,11.2-5.2
		c1.7-2.6,1.7-5.8,0.1-9.3l-1-2.1l2.3-0.4c4.4-0.7,9.8-3.9,10.8-7.7c1.6-5.6,0.6-10.9-3.3-17.2c-1,0.5-2.1,1-3.3,1.3
		c-5.4,1.6-11.3,0.6-17.4-2.9C67,77,62.6,83.2,55.3,85.1c-2.1,0.5-4.1,0.8-6.2,0.8c-1.2,0-2.4-0.1-3.5-0.2
		c-7.5,2.6-7.6,13.9-5.5,19.7C44.4,103.7,50.2,102.2,56,103.4z"/>
	<path id="XMLID_63_" class="st3" d="M54.4,81.7c8-2.1,12-10.9,12-11l0.8-1.9l1.7,1.1c5.8,3.8,11.2,5,16.1,3.5
		c7.3-2.2,11.5-9.6,12.5-11.6c-1.3-2.1-2.4-4.8-3.1-7.9l3.4-0.8c1.3,5.7,3.8,9.5,7.2,11.1c5,2.4,10.7-0.3,10.8-0.3l1.5,3.2
		c-0.2,0.1-3.5,1.6-7.6,1.6c-2,0-4.1-0.3-6.2-1.3c-1.4-0.7-2.6-1.5-3.7-2.6c-1.3,2.3-3.8,5.9-7.5,8.7c3.1,4.8,6.2,11.7,3.8,20
		c-1.2,4-5.3,7.3-9.6,9c7.2,4.8,13.3,6.4,18.2,4.8c6.3-2.1,8.5-9.3,8.6-9.4l3.4,1c-0.1,0.4-2.7,8.9-10.8,11.7
		c-1.6,0.6-3.3,0.8-5.1,0.8c-4.7,0-9.9-1.9-15.6-5.6c0.4,2.9-0.2,5.7-1.8,8.1c-1.8,2.7-4.6,4.7-8.2,5.8c6.4,0.5,13.9,3.5,17.6,13.1
		c2-5,6.1-9.2,11.3-11.4c6.2-2.6,13-2.2,19.4,1c0-29.7,0-63.5,0-71.7c0-10.9-5.1-19.4-15.4-19.4c-10.4,0-16.7,8.7-18.1,12.9
		c-12.5-5.4-24.7,6.4-24.7,14.8c-10.8-1.1-21,10.7-19.7,23C48.5,82.5,51.5,82.5,54.4,81.7z"/>
	<path id="XMLID_61_" class="st0" d="M105.6,124.8c-5.6,2.4-9.6,7.5-10.4,13.3l-0.3,2.2l-2.1-0.8c-4.7-1.8-10.5-1-13.7,0.7
		c-5.4,3-9.3,10-5.8,19c6.4-1.6,12.6,0.9,17.4,7.1c0,0,0,0,0.1,0c5.9-4.6,13.6-4.2,21.3,1l-2,2.9c-6.3-4.3-12.5-4.7-17.1-1.1
		c-4.3,3.3-6.1,9.4-4.3,14.4l-3.3,1.2c-1.9-5.3-0.7-11.5,2.8-15.9c-4-5.3-9.1-7.5-14.3-6.1c-5.2,1.4-9.2,6.3-9.5,11.7l-3.5-0.2
		c0.3-5.8,3.9-11.1,9.1-13.7c-4.1-10.5,0.4-19.5,7.4-23.3c3-1.6,7.7-2.7,12.5-2c-4.4-12.5-15.7-12.6-22.4-11.4l-3,0.5l1-2.8
		c0.7-2.1,0.3-5-1.3-7.7c-2-3.5-5.4-6-9-6.8c-5.9-1.2-12.1,0.9-15.9,2.6c-6.6,5.8-9.4,20.8,1.2,29.3c-4.9,8.9,5.9,18.4,8,19.8
		c0.2,16.9,15.8,26.6,25,24.9c8.9,17.2,50,24.5,50-13.5c0-3.7,0-22.2,0-43.5C117.7,123,111.2,122.4,105.6,124.8z"/>
	<path id="XMLID_3_" class="st4" d="M76.9,137c5.6-3.2,12.4-2,12.4-2c-5.4-15.8-22.1-11.4-22.1-11.4l-2.9,0.5l1-2.8
		c0,0,1.6-2-1.3-7.7c-2.8-5.6-8.9-6.8-8.9-6.8C47.5,105.2,40,108,40,108c-1.6-1.8,0.1-2.6,0.1-2.6s8.3-3.6,15.6-1.9
		s10.1,6.8,11.2,8.5s1.9,5.3,1.9,5.3c2.7-0.1,8-0.9,11.1-5.2c3-4.2,0.1-9.3,0.1-9.3l-1-2.1l2.3-0.4c8.5-1.4,10.7-7.7,10.7-7.7
		c2.9-8.6-3.3-17.2-3.3-17.2c-10.8,5.4-20.4-1.6-20.4-1.6c-8.3,14.8-22.4,10.7-22.4,10.7c-2-1.9-0.4-2.5-0.4-2.5
		C61.7,85,66.9,68.8,66.9,68.8c20.4,14.7,29.9-6.9,29.9-6.9c-1.9-2.5-3-7.9-3-7.9l3.4-0.8c3.9,17.6,17.8,10.9,17.8,10.9l1.5,3.2
		c-10.6,4.9-17.3-2.3-17.3-2.3c-3.4,5.7-7.4,8.7-7.4,8.7c12.9,23.2-5.8,29-5.8,29c21.6,14,26.4-4.6,26.4-4.6l3.3,1
		c-9.5,23.5-31.1,6.9-31.1,6.9c1.1,10.6-9.8,13.8-9.8,13.8c14,1.4,17.4,13.1,17.4,13.1c10.5-21.2,30.3-10.4,30.3-10.4v4
		c0,0-8.3-5.9-17.8-1.7S94.5,137.6,94.4,138s-0.3,2.2-0.3,2.2c-8.5-4.3-15.6-0.1-15.6-0.1c-11.1,6.7-5.7,19-5.7,19
		c10.6-2.6,17.2,7.1,17.2,7.1c9.6-7.6,21,0.9,21,0.9l-2,2.9c0,0-9.4-7.4-16.9-1.1c-7.5,6.3-4.2,14.4-4.2,14.4l-3.3,1.2
		c0,0-3.2-7.9,2.8-15.9c0,0-5.3-8.3-14.1-6.1c-8.8,2.2-9.4,11.7-9.4,11.7l-3.5-0.2c0,0,0.5-9.2,9-13.7
		C69.6,160.3,63.1,144.8,76.9,137z"/>
</g>
<g id="XMLID_2_">
	<path id="XMLID_38_" class="st0" d="M215.3,108.8c-1.3,1.4-2.9,2.6-4.7,3.6c-3.1,1.6-6.3,2.1-9.1,2c-2.4,0-4.6-0.4-6.6-1
		c-1.6,5.4-4.5,9.4-8.6,11.7c-3.2,1.7-6.6,2.3-9.8,2.3c-5.3,0-9.6-1.6-9.8-1.7l0.1-0.2c0,0-0.1,0.1-0.1,0.1
		c-3.9,3.2-8.9,4.7-14.8,4.7c-1.9,0-3.9-0.2-5.9-0.5c-6-0.9-11-4.7-14.4-8.3c0,14.5,0,28.1,0,37.3c1,2.9,3,6.7,6.6,9.1
		c3.7,2.5,8.4,3.2,14.1,2.1c-0.3-3.5,0.6-7.6,3.6-12.3l3,1.9c-8,12.8,2.3,19.7,2.7,20l-1.9,3c-0.1-0.1-4.8-3.2-6.7-9.1
		c-2,0.4-3.8,0.6-5.6,0.6c-4.2,0-8-1.1-11.1-3.3c-1.9-1.3-3.4-2.8-4.6-4.5c0,1.3,0,2.3,0,3.1c0,38,41.1,30.7,50,13.5
		c0.1,0,0.2,0,0.2,0c1.7-3,3.3-7,3.1-11.5c-0.3-5.6-3.3-10.8-8.8-15.7c-2.4,3.1-6.2,5.9-12.1,7.4l-0.9-3.4
		c16.3-4.1,13.6-19.4,13.4-20l3.5-0.7c0,0.1,1.3,7.1-2,13.7c6.6,5.6,10.1,11.8,10.5,18.6c0.2,4.5-1,8.5-2.6,11.6
		c7.2-1,15.8-7,19.2-16.6l0,0c0-0.1,3.5-9.7-0.9-17.9c-2.8-5.3-8.3-8.9-16.3-10.8l0.8-3.4c9,2.2,15.3,6.4,18.6,12.6
		c1.5,2.8,2.2,5.7,2.5,8.4c3.7-3.7,8.4-10.5,4.8-17C225.2,129.8,222.1,114.4,215.3,108.8z"/>
	<path id="XMLID_35_" class="st2" d="M169.2,59.6c-2.5,7.5-8.7,11.9-12.1,13.8c2.5,4.9,2.9,10.2,3,12.9c3.5-0.2,7.7,0.8,12.5,4
		l-2,2.9c-12.5-8.5-19.8,1.5-20.1,1.9l-2.9-2c0.1-0.1,3.3-4.5,9-6.2c0-3-0.6-12-6.6-17.1c-4.3-3.6-10.5-4.7-18.6-3.1
		c0,13,0,31.6,0,49.5c2.9,3.6,8.3,9.1,15,10.2c7.6,1.2,13.7,0,18-3.5c6.2-5,6.8-13.3,6.8-13.4l3.5,0.2c0,0.3-0.5,7.3-5.3,13.1
		c3,0.8,9.8,2.1,15.2-0.9c3.4-1.9,5.8-5.2,7.1-9.9c-1.4-0.8-2.7-1.8-3.8-3c-5.1-5.6-4.5-13.4-4.5-13.7l3.5,0.3
		c0,0.1-0.5,6.7,3.6,11.1c0.8,0.8,1.6,1.5,2.6,2.1l1.3,0.6c0.1,0,8,3.4,14.5-0.1c3.4-1.8,5.5-4.4,6.5-7.8c0.3-1.1,0.5-2.2,0.6-3.3
		c0.1-5.6-1.6-11.7-7.3-13.3c3.3-11.6-4.6-23.8-14.4-26c2,6.8,1.6,12.6-1.1,17.2c-5.1,8.4-16.1,9.5-16.6,9.6l-0.4-3.5
		c0.1,0,9.8-1.1,13.9-7.9c2.4-4,1.9-8.3,0.3-15.7c-0.3,0,0.3,0,0,0c-0.8-7.9-11-18.1-22.3-15.8C170.6,48.8,170.9,54.5,169.2,59.6z"
		/>
	<path id="XMLID_13_" class="st3" d="M152.3,67.2c1.2,1,2.1,2.1,3,3.2c2.9-1.7,8.4-5.6,10.6-12c1.8-5.3,0.9-11.2-2.4-17.7
		c-2.7-4.4-8.4-9.9-16.6-9.9c-10.4,0-15.4,8.5-15.4,19.4c0,1.9,0,6.6,0,12.9C140.3,61.6,147.3,63,152.3,67.2z"/>
	<g id="XMLID_9_">
		<path id="XMLID_12_" class="st4" d="M131.4,166.6c8.2,10.9,21.3,7.1,21.3,7.1c1.9,6,6.7,9.1,6.7,9.1l1.9-3
			c-11.1-8.1-2.7-20-2.7-20l-3-1.9c-4.5,6.7-3.6,12.3-3.6,12.3c-16.6,3.7-20.7-11.2-20.7-11.2V166.6z"/>
		<path id="XMLID_14_" class="st4" d="M163.8,163.4c8.4-2.2,12.1-7.4,12.1-7.4c15.9,13.5,6.8,27.3,6.8,27.3c1.8,2.2,3-0.1,3-0.1
			c8.6-17.2-7.9-30.2-7.9-30.2c3.3-6.8,2-13.7,2-13.7l-3.5,0.7c2.1,17.2-13.4,20-13.4,20L163.8,163.4z"/>
		<path id="XMLID_15_" class="st4" d="M189.4,133.5l-1.8,4.3c0,0,20.1,1.6,19.7,18.4c0,0,2.8,1.6,2.3-0.8c-0.5-2.4-2-16.8-21.3-21.1
			"/>
		<path id="XMLID_17_" class="st4" d="M131.4,121.6c0,0,13.4,16.7,35.2,4.1c0,0,21.9,7.8,28.3-12.3c0,0,12.1,3.8,20.4-4.6
			c0,0,1-1.6-1.4-2.2c0,0-2.6,1.8-5,2.7c-2.4,0.9-6.1,2.5-11.8,0.9c-5.7-1.6-10.2-4.9-10.2-14.6l-3.5-0.3c0,0-1.4,11,8.2,16.7
			c0,0-3.4,16.1-22.2,10.8c0,0,3.9-4.1,5.3-13.1l-3.5-0.2c0,0-1.3,17.2-18.8,17.2c0,0-9.5,1.1-16.2-5.6l-4.7-5V121.6z"/>
		<path id="XMLID_18_" class="st4" d="M131.4,66.8c4.9-1.6,12.4-1.4,18.6,3.1c6.2,4.5,6.6,17.1,6.6,17.1c-5.1,1.4-9,6.2-9,6.2l2.9,2
			c9.1-10.9,20.1-1.9,20.1-1.9l2-2.9c-5.8-3.9-12.5-4-12.5-4c-0.1-7.1-3-12.9-3-12.9c2.2-1,9.2-6.3,12.1-13.8
			c2.9-7.5-0.9-16.8-0.9-16.8c-1.9-1.9-2.3,0.4-2.3,0.4s2.4,7.3-0.1,15.2s-10.6,12-10.6,12c-7.7-10.9-23.9-7.2-23.9-7.2V66.8z"/>
		<path id="XMLID_19_" class="st4" d="M194.3,59c0,0,3.2,8.3-1.1,17.2s-16.6,9.6-16.6,9.6l-0.4-3.5c0,0,10.4-1.3,13.9-7.9
			c3.4-6.6,1.7-15.1,1.7-15.1S192.6,56.8,194.3,59z"/>
	</g>
</g>
</svg>
