<?xml version="1.0" encoding="utf-8"?>
<!-- Generator: Adobe Illustrator 19.0.0, SVG Export Plug-In . SVG Version: 6.00 Build 0)  -->
<svg version="1.1" id="Layer_1" xmlns="http://www.w3.org/2000/svg" xmlns:xlink="http://www.w3.org/1999/xlink" x="0px" y="0px"
	 viewBox="-79 40.5 48 48" style="enable-background:new -79 40.5 48 48;" xml:space="preserve">
<g>
	<g>
		<path d="M-36,88.5h-38c-2.8,0-5-2.2-5-5v-38c0-2.8,2.2-5,5-5h38c2.8,0,5,2.2,5,5v38C-31,86.3-33.2,88.5-36,88.5z M-74,42.5
			c-1.7,0-3,1.3-3,3v38c0,1.7,1.3,3,3,3h38c1.7,0,3-1.3,3-3v-38c0-1.7-1.3-3-3-3H-74z"/>
	</g>
	<g>
		<path d="M-32,52.5h-46c-0.6,0-1-0.4-1-1s0.4-1,1-1h46c0.6,0,1,0.4,1,1S-31.4,52.5-32,52.5z"/>
	</g>
	<g>
		<path d="M-65,48.5c-1.1,0-2-0.9-2-2s0.9-2,2-2s2,0.9,2,2S-63.9,48.5-65,48.5z M-65,46.5L-65,46.5L-65,46.5z"/>
	</g>
	<g>
		<path d="M-45,48.5c-1.1,0-2-0.9-2-2s0.9-2,2-2s2,0.9,2,2S-43.9,48.5-45,48.5z M-45,46.5L-45,46.5L-45,46.5z"/>
	</g>
	<g>
		<path d="M-37,58.5h-5c-0.6,0-1-0.4-1-1s0.4-1,1-1h5c0.6,0,1,0.4,1,1S-36.4,58.5-37,58.5z"/>
	</g>
	<g>
		<path d="M-47.3,58.5h-5c-0.6,0-1-0.4-1-1s0.4-1,1-1h5c0.6,0,1,0.4,1,1S-46.8,58.5-47.3,58.5z"/>
	</g>
	<g>
		<path d="M-37,66.5h-5c-0.6,0-1-0.4-1-1s0.4-1,1-1h5c0.6,0,1,0.4,1,1S-36.4,66.5-37,66.5z"/>
	</g>
	<g>
		<path d="M-47.3,66.5h-5c-0.6,0-1-0.4-1-1s0.4-1,1-1h5c0.6,0,1,0.4,1,1S-46.8,66.5-47.3,66.5z"/>
	</g>
	<g>
		<path d="M-57.7,66.5h-5c-0.6,0-1-0.4-1-1s0.4-1,1-1h5c0.6,0,1,0.4,1,1S-57.1,66.5-57.7,66.5z"/>
	</g>
	<g>
		<path d="M-68,66.5h-5c-0.6,0-1-0.4-1-1s0.4-1,1-1h5c0.6,0,1,0.4,1,1S-67.4,66.5-68,66.5z"/>
	</g>
	<g>
		<path d="M-37,74.5h-5c-0.6,0-1-0.4-1-1s0.4-1,1-1h5c0.6,0,1,0.4,1,1S-36.4,74.5-37,74.5z"/>
	</g>
	<g>
		<rect x="-53.3" y="72.5" width="7" height="2"/>
	</g>
	<g>
		<path d="M-57.7,74.5h-5c-0.6,0-1-0.4-1-1s0.4-1,1-1h5c0.6,0,1,0.4,1,1S-57.1,74.5-57.7,74.5z"/>
	</g>
	<g>
		<path d="M-68,74.5h-5c-0.6,0-1-0.4-1-1s0.4-1,1-1h5c0.6,0,1,0.4,1,1S-67.4,74.5-68,74.5z"/>
	</g>
	<g>
		<path d="M-37,82.5h-5c-0.6,0-1-0.4-1-1s0.4-1,1-1h5c0.6,0,1,0.4,1,1S-36.4,82.5-37,82.5z"/>
	</g>
	<g>
		<path d="M-47.3,82.5h-5c-0.6,0-1-0.4-1-1s0.4-1,1-1h5c0.6,0,1,0.4,1,1S-46.8,82.5-47.3,82.5z"/>
	</g>
	<g>
		<path d="M-57.7,82.5h-5c-0.6,0-1-0.4-1-1s0.4-1,1-1h5c0.6,0,1,0.4,1,1S-57.1,82.5-57.7,82.5z"/>
	</g>
	<g>
		<path d="M-68,82.5h-5c-0.6,0-1-0.4-1-1s0.4-1,1-1h5c0.6,0,1,0.4,1,1S-67.4,82.5-68,82.5z"/>
	</g>
</g>
</svg>
