<svg width="464" height="160" viewBox="0 0 464 160" fill="none" xmlns="http://www.w3.org/2000/svg">
<path d="M208 40H229.031C253.253 40 267.612 53.211 267.612 79.633C267.612 106.202 253.253 120 229.756 120H208V40ZM228.016 108.55C243.971 108.55 253.108 99.4495 253.108 79.633C253.108 60.1101 243.971 51.4495 228.016 51.4495H222.069V108.404H228.016V108.55Z" fill="#00125B"/>
<path d="M282.117 40H329.546V52.0367H296.041V72.4404H324.47V84.3303H296.041V107.963H330.706V120H282.117V40Z" fill="#00125B"/>
<path d="M344.775 40H392.204V52.0367H358.699V72.4404H387.128V84.3303H358.699V107.963H393.365V120H344.775V40Z" fill="#00125B"/>
<path d="M407.433 40H433.976C451.236 40 464 46.1651 464 64.6605C464 82.422 450.946 90.6422 433.976 90.6422H421.357V120H407.288V40H407.433ZM432.816 79.1927C444.709 79.1927 450.221 74.4954 450.221 64.6605C450.221 54.6789 444.274 51.3028 432.816 51.3028H421.502V79.1927H432.816Z" fill="#00125B"/>
<g clip-path="url(#clip0)">
<path d="M81.901 0.151372C83.5148 0.100915 85.1286 0.353201 86.7424 0.655944C95.8202 2.32103 103.637 6.35762 110.143 12.9675C116.396 19.3251 120.33 26.8937 121.843 35.6733C123.457 45.1592 121.994 54.2416 117.556 62.8193C117.456 63.0716 117.304 63.2734 117.203 63.4752C116.195 65.1403 114.026 65.6954 112.311 64.7871C110.597 63.8284 109.891 61.7597 110.849 59.9937C111.958 57.8745 112.917 55.7048 113.623 53.4342C117.506 41.0722 114.177 27.3478 105.1 18.1142C99.9052 12.8666 93.7525 9.33459 86.4903 7.97225C74.3362 5.65121 63.5942 8.67865 54.466 17.105C48.6663 22.403 45.136 29.0129 43.7744 36.7329C42.4127 44.5033 43.5222 51.971 47.1029 59.035C47.2542 59.3882 47.4559 59.7414 47.6576 60.0441C48.515 61.8101 47.8594 63.8789 46.1447 64.7871C44.43 65.7458 42.2614 65.1908 41.2528 63.5257C40.8997 62.9202 40.5972 62.3147 40.2946 61.6588C38.1764 57.3195 36.7643 52.7783 36.26 47.9849C34.7975 34.3614 38.8825 22.5544 48.4645 12.7657C54.7181 6.35761 62.3838 2.42195 71.159 0.756859C72.9241 0.403658 74.7396 0.151372 76.5552 0.151372C76.9586 0.100915 77.4125 0.302744 77.816 0H80.8923C81.2454 0.302744 81.5984 0.100915 81.901 0.151372Z" fill="#00125B"/>
<path d="M0.302592 112.574C1.21037 106.116 6.05184 101.221 12.4567 100.263C13.2636 100.162 14.0705 100.061 14.827 100.061C15.18 100.061 15.3313 100.162 15.3818 100.515C15.5331 101.373 15.6844 102.18 15.6844 103.038C15.6844 103.845 15.3818 104.4 14.6757 104.804C13.9192 105.258 13.1628 105.561 12.3558 105.914C11.0446 106.469 9.88467 107.175 8.87603 108.184C6.10227 110.96 5.29536 114.29 6.50573 118.024C7.66567 121.707 10.1873 123.978 14.0201 124.583C17.6512 125.138 20.778 124.179 23.1987 121.303C24.3587 119.89 25.0143 118.225 25.2664 116.459C25.6195 113.684 25.6699 110.909 25.4682 108.083C25.2664 105.106 25.3169 102.079 26.0733 99.1525C27.1829 94.7628 29.7045 91.3821 33.4869 88.9097C34.4955 88.2538 35.5546 87.6987 36.6136 87.1942C36.8154 87.0933 37.0675 87.0428 37.2188 86.841C37.0675 86.6896 36.8154 86.6391 36.6641 86.5382C34.3946 85.5291 32.3269 84.2172 30.5618 82.5016C28.0906 80.0797 26.6281 77.1027 25.9221 73.7221C25.2664 70.6442 25.3673 67.5158 25.5186 64.3875C25.6699 61.7637 25.6699 59.0895 25.1151 56.5161C24.4595 53.5392 22.8457 51.1677 20.0215 49.8053C15.1296 47.4338 8.9769 49.7549 6.90918 54.7501C5.90055 57.1721 5.64839 59.6445 6.60659 62.1674C7.5648 64.6902 9.43079 66.4058 11.902 67.3645C12.4567 67.5663 13.0115 67.7681 13.5662 68.0204C13.9192 68.1718 14.2723 68.3736 14.5749 68.5754C15.7852 69.3827 16.2895 70.4928 16.0374 71.9561C15.9365 72.5111 15.7852 73.0661 15.5835 73.6212C15.4826 73.9239 15.3313 74.0753 14.9783 74.0248C9.98554 73.4193 5.64839 71.5524 2.6729 67.2635C1.31123 65.2957 0.50432 63.126 0.302592 60.7041C0.151296 60.3509 0.201728 59.5436 0 59.1399V57.4244C0.453888 54.8511 1.05907 52.3282 2.5216 50.1081C5.24493 46.0715 9.07776 43.7505 13.9192 43.145C22.3414 42.0349 29.6036 47.787 31.167 55.9107C31.5704 58.0299 31.6209 60.25 31.6209 62.4196C31.6713 64.5893 31.5704 66.7085 31.4191 68.8277C31.0661 73.2175 32.6799 76.8 36.1597 79.5247C37.6223 80.6347 39.1857 81.5934 40.9004 82.2998C43.0185 83.208 44.2289 85.075 44.0776 87.2951C43.9767 88.9097 43.1698 90.1711 41.8586 90.9785C40.6986 91.6849 39.4883 92.3913 38.2779 92.9463C37.6727 93.1986 37.118 93.5013 36.5632 93.8545C33.5877 95.7214 32.0243 98.4461 31.6713 101.877C31.4191 103.946 31.6209 106.065 31.6209 108.134C31.6713 111.666 31.6209 115.198 31.0157 118.73C30.4609 122.161 28.6958 124.936 25.9725 127.106C21.0806 130.991 13.8184 131.798 8.37171 128.872C3.7824 126.45 1.21037 122.565 0.302592 117.469C0.25216 117.166 0.151296 113.937 0.302592 112.574Z" fill="#00125B"/>
<path d="M45.5904 128.816C45.5904 130.28 45.5904 131.743 45.5904 133.156C45.5904 133.408 45.3886 133.509 45.2373 133.559C44.5313 133.913 43.8252 134.215 43.1192 134.569C42.161 135.073 41.2028 135.628 40.3454 136.234C38.6308 137.495 37.5212 139.11 37.1178 141.179C36.6639 143.348 36.6135 145.518 37.2187 147.688C37.6221 149.201 38.4795 150.362 39.7907 151.27C41.7575 152.582 43.9765 153.288 46.3468 153.44C47.8094 153.541 49.0702 153.086 50.2805 152.229C51.6422 151.22 52.7013 149.908 53.7604 148.596C55.2733 146.729 55.8281 144.66 55.7776 142.238C55.475 132.248 55.6768 122.207 55.6263 112.216C55.5759 106.868 55.6263 101.57 55.6263 96.2211C55.6263 94.7578 55.5255 93.345 55.8785 91.8818C56.5341 89.3084 58.0471 87.5424 60.6695 86.9369C62.3842 86.5333 63.9981 86.8865 65.5614 87.5424C67.4274 88.3497 69.2934 89.0057 71.2603 89.5103C78.0182 91.2258 84.6247 90.5699 91.0296 87.8956C92.1391 87.4415 93.1982 86.9874 94.4085 86.8865C98.0396 86.5837 101.066 88.8543 101.721 92.4368C101.872 93.1432 101.872 93.7991 101.872 94.5055C101.872 105.909 101.872 117.312 101.872 128.716C101.872 133.509 101.872 138.353 101.923 143.146C101.923 144.912 102.125 146.729 102.78 148.394C103.991 151.472 106.26 153.187 109.437 153.742C111.102 154.045 112.766 153.995 114.43 153.591C116.699 153.036 118.515 151.825 119.675 149.807C121.037 147.536 121.692 145.064 121.238 142.39C120.936 140.825 120.23 139.463 119.171 138.302C117.96 136.991 116.548 135.931 114.884 135.275C113.926 134.922 113.018 134.518 112.06 134.215C111.707 134.115 111.606 133.913 111.606 133.559C111.656 132.298 111.606 131.087 111.606 129.826C111.606 129.271 111.606 129.22 112.161 129.271C118.061 129.472 122.701 131.945 125.525 137.192C129.661 144.811 126.685 154.045 118.919 158.132C116.346 159.495 113.573 160.201 110.648 159.999C104.747 159.696 98.897 155.912 96.9301 150.109C96.1232 147.788 95.8206 145.366 95.7702 142.945C95.6693 139.312 95.6693 135.729 95.6189 132.096C95.5685 123.266 95.5685 114.487 95.5685 105.657C95.5685 102.074 95.5181 98.4917 95.5685 94.8587C95.5685 94.1523 95.3163 93.4964 95.0642 92.79C94.812 92.79 94.5598 92.9414 94.3581 92.9918C91.0296 94.3542 87.6002 95.4138 84.0196 95.9183C78.2703 96.7761 72.5715 96.322 67.0744 94.4551C65.511 93.9505 64.0485 93.345 62.5355 92.6386C62.3338 92.5377 62.1321 92.3863 61.8295 92.3863C61.779 93.1936 61.7286 94.001 61.6782 94.8083C61.5269 97.0284 61.5269 99.2485 61.5269 101.469C61.5269 108.634 61.5269 115.799 61.5269 122.963C61.5269 128.867 61.5269 134.821 61.426 140.724C61.426 142.591 61.4765 144.509 61.2243 146.376C60.3669 152.834 55.7776 157.779 49.4736 159.394C40.1437 161.765 31.2677 155.105 29.906 146.325C28.9982 140.472 31.1668 135.83 35.8066 132.298C38.3786 130.33 41.3541 129.271 44.5313 128.766C44.9348 128.867 45.1869 128.867 45.5904 128.816Z" fill="#00125B"/>
<path d="M157.549 113.833C157.549 114.589 157.549 115.346 157.549 116.053C157.549 119.433 156.289 122.36 154.221 124.933C151.296 128.566 147.463 130.382 142.773 130.584C138.738 130.736 135.107 129.626 131.93 127.153C128.854 124.731 127.088 121.603 126.635 117.667C126.13 113.479 126.181 109.241 126.231 105.053C126.281 103.337 126.231 101.622 125.777 99.9568C124.92 96.778 122.953 94.5579 120.028 93.1451C118.767 92.5396 117.506 91.8332 116.296 91.1268C114.43 90.0672 113.421 88.503 113.623 86.3838C113.774 84.315 114.934 83.0031 116.8 82.1454C119.171 81.0858 121.339 79.7234 123.155 77.806C125.626 75.1318 126.584 71.953 126.281 68.421C126.08 66.2009 125.979 63.9808 126.13 61.7606C126.231 59.9442 126.231 58.1277 126.534 56.3617C127.593 49.7518 132.333 44.7061 138.335 43.3438C146.253 41.5273 155.229 46.018 157.297 54.848C157.499 55.6553 157.549 56.4626 157.549 57.3204C157.549 58.1277 157.549 58.935 157.549 59.7424C157.499 63.9808 155.683 67.4119 152.506 70.1365C150.085 72.2053 147.16 73.3154 144.034 73.8199C143.933 73.8199 143.832 73.8704 143.731 73.8704C142.168 74.0722 142.47 74.2236 142.016 72.8108C141.915 72.5585 141.865 72.2558 141.815 72.0035C141.562 70.6411 142.016 69.5311 143.126 68.6733C143.882 68.1183 144.689 67.8155 145.547 67.5128C146.555 67.1596 147.564 66.655 148.421 65.9991C151.397 63.5771 152.355 60.3983 151.598 56.7149C151.397 55.8067 151.094 54.9489 150.64 54.0911C149.127 51.1142 146.656 49.4995 143.378 49.0454C141.966 48.8436 140.554 48.8436 139.142 49.2977C135.864 50.3068 133.897 52.6279 132.838 55.8067C132.384 57.169 132.333 58.5314 132.283 59.9442C132.182 61.6597 132.232 63.4257 132.333 65.1413C132.535 68.3705 132.485 71.5998 131.678 74.7786C130.619 78.8657 128.4 82.0949 124.92 84.4664C123.76 85.2737 122.55 85.9297 121.289 86.5352C121.087 86.6361 120.784 86.6865 120.633 86.8884C120.784 87.1406 121.037 87.1911 121.289 87.292C123.558 88.3516 125.626 89.6635 127.391 91.4295C129.862 93.9019 131.274 96.8284 131.93 100.26C132.434 102.883 132.485 105.507 132.283 108.131C132.132 111.007 132.132 113.883 132.535 116.709C133.191 121.452 137.074 124.731 141.865 124.832C146.454 124.933 150.59 122.007 151.548 117.112C152.304 113.277 151.094 110.099 148.119 107.576C147.312 106.92 146.404 106.415 145.446 106.012C144.689 105.709 143.983 105.406 143.277 105.003C142.369 104.498 142.016 103.741 142.117 102.782C142.168 102.126 142.268 101.47 142.369 100.764C142.47 100.159 142.47 100.159 143.075 100.159C149.732 100.159 155.078 104.246 156.944 110.099C157.348 111.31 157.65 112.521 157.549 113.833Z" fill="#00125B"/>
<path d="M97.6861 74.4766H60.2656V78.5636H97.6861V74.4766Z" fill="#00125B"/>
<path d="M65.3099 75.5814C65.3099 81.6867 60.3676 86.6315 54.2653 86.6315C48.163 86.6315 43.2207 81.6867 43.2207 75.5814C43.2207 69.4761 48.163 64.5312 54.2653 64.5312C60.3676 64.5312 65.3099 69.4761 65.3099 75.5814ZM54.2653 69.7788C51.0881 69.7788 48.4656 72.3521 48.4656 75.5814C48.4656 78.7602 51.0377 81.384 54.2653 81.384C57.4425 81.384 60.0146 78.8106 60.0146 75.5814C60.065 72.3521 57.4425 69.7788 54.2653 69.7788Z" fill="#00125B"/>
<path d="M114.532 76.3939C114.532 82.4992 109.589 87.444 103.487 87.444C97.3847 87.444 92.4424 82.4992 92.4424 76.3939C92.4424 70.2886 97.3847 65.3438 103.487 65.3438C109.589 65.3942 114.532 70.339 114.532 76.3939ZM103.487 70.6418C100.31 70.6418 97.6873 73.2151 97.6873 76.4443C97.6873 79.6231 100.259 82.2469 103.487 82.2469C106.664 82.2469 109.236 79.6736 109.236 76.4443C109.287 73.2151 106.715 70.6418 103.487 70.6418Z" fill="#00125B"/>
<path d="M54.2652 35.2669C55.879 35.6201 57.3416 36.6797 58.1989 38.1934C58.5519 38.7989 58.7537 39.4044 58.8545 40.0099C60.5692 39.909 62.0317 39.3035 62.7378 38.2439C63.343 37.3861 63.343 36.2761 62.7882 35.0651L62.4352 34.3587L63.2421 34.2073C64.7551 33.955 66.5706 32.845 66.9741 31.5835C67.5288 29.6662 67.1758 27.8497 65.8141 25.68C65.4611 25.8819 65.1081 26.0332 64.7046 26.1341C62.8386 26.6892 60.8214 26.336 58.7032 25.125C58.098 26.1846 56.5851 28.3038 54.1139 28.9598C53.4079 29.1616 52.7018 29.212 51.9958 29.212C51.5923 29.212 51.1889 29.1616 50.7854 29.1111C48.2134 30.0194 48.163 33.9046 48.869 35.8724C50.2307 35.3678 52.2479 34.8632 54.2652 35.2669Z" fill="#00125B"/>
<path d="M53.7097 27.799C56.433 27.0926 57.7947 24.0652 57.8451 24.0147L58.1477 23.3588L58.7529 23.7624C60.7702 25.0743 62.5857 25.478 64.3004 24.9734C66.7716 24.2166 68.2341 21.6937 68.5871 20.9873C68.1332 20.2304 67.7802 19.3727 67.5281 18.2626L68.688 18.0103C69.1419 19.9782 69.9992 21.2396 71.1592 21.8451C72.8739 22.6524 74.8407 21.7442 74.8407 21.7442L75.345 22.8542C75.2946 22.9047 74.1347 23.4092 72.7226 23.4092C72.0669 23.4092 71.3105 23.3083 70.6044 22.9551C70.1505 22.7533 69.6966 22.4506 69.3436 22.0469C68.8897 22.8038 68.0324 24.0652 66.7716 25.0239C67.8307 26.689 68.8897 29.0605 68.0828 31.8861C67.6794 33.2484 66.2673 34.3585 64.8047 34.964C67.2759 36.6291 69.394 37.1841 71.0583 36.5786C73.2269 35.8217 73.9834 33.3998 73.9834 33.3493L75.1433 33.7025C75.0929 33.8034 74.2355 36.7804 71.4618 37.7391C70.907 37.9409 70.3018 38.0419 69.6966 38.0419C68.0828 38.0419 66.3177 37.3859 64.3508 36.1245C64.5021 37.1336 64.3004 38.0923 63.7457 38.8996C63.1405 39.8079 62.1318 40.5143 60.9215 40.8675C63.1405 41.0693 65.7125 42.0784 66.9733 45.3582C67.6794 43.6426 69.041 42.1794 70.8566 41.4225C72.9747 40.5143 75.345 40.6656 77.5136 41.7757V17.1525C77.5136 13.4187 75.7989 10.4922 72.2182 10.4922C68.6376 10.4922 66.469 13.4692 66.0151 14.9324C61.7284 13.0655 57.5425 17.1021 57.5425 20.0286C53.861 19.6754 50.3308 23.712 50.7846 27.8999C51.6924 28.1018 52.7011 28.0513 53.7097 27.799Z" fill="#00125B"/>
<path d="M71.26 42.5834C69.3436 43.3908 67.982 45.1568 67.6794 47.1246L67.5785 47.8814L66.8725 47.5787C65.2586 46.9228 63.2918 47.2255 62.1823 47.831C60.3163 48.8401 58.9546 51.2621 60.2154 54.34C62.384 53.7849 64.5526 54.6427 66.2168 56.7619C68.2341 55.1978 70.907 55.2987 73.5295 57.1151L72.8234 58.1243C70.6549 56.661 68.5367 56.5096 66.9733 57.7206C65.5108 58.8811 64.9056 60.9499 65.5108 62.6654L64.3509 63.0691C63.6952 61.2526 64.0987 59.1334 65.3091 57.6197C63.9474 55.8032 62.1823 55.0464 60.4172 55.551C58.6016 56.0555 57.2399 57.7206 57.1391 59.5371L55.9287 59.4866C56.0296 57.5188 57.2904 55.6519 59.0555 54.7941C57.6434 51.2116 59.2068 48.0833 61.6275 46.7714C62.6362 46.2164 64.3004 45.8632 65.9142 46.1154C64.4013 41.8266 60.518 41.7761 58.2486 42.1798L57.2399 42.3816L57.593 41.4229C57.8451 40.6661 57.6938 39.7074 57.1391 38.7991C56.433 37.5882 55.2731 36.7304 54.0123 36.4781C51.995 36.0744 49.8769 36.7808 48.5656 37.3863C46.2962 39.3542 45.338 44.5513 48.9691 47.4778C47.2544 50.5557 50.9864 53.7849 51.7428 54.2895C51.8437 60.0921 57.1391 63.4223 60.3163 62.8673C63.3926 68.7708 77.5136 71.2936 77.5136 58.2252V43.1889C75.4459 41.9779 73.2269 41.7761 71.26 42.5834Z" fill="#00125B"/>
<path d="M61.4264 46.8238C63.3428 45.7137 65.6627 46.1678 65.6627 46.1678C63.7967 40.7185 58.0979 42.2322 58.0979 42.2322L57.0892 42.434L57.4423 41.4753C57.4423 41.4753 57.997 40.7689 56.9884 38.8515C56.0302 36.9342 53.912 36.5305 53.912 36.5305C51.34 35.9755 48.7175 36.9342 48.7175 36.9342C48.1628 36.3287 48.768 36.0259 48.768 36.0259C48.768 36.0259 51.6426 34.7645 54.1138 35.37C56.6354 35.9755 57.5936 37.691 57.9466 38.2965C58.35 38.902 58.6022 40.113 58.6022 40.113C59.51 40.0625 61.376 39.8102 62.435 38.347C63.4941 36.8837 62.4855 35.1682 62.4855 35.1682L62.1324 34.4618L62.9394 34.3104C65.8644 33.8058 66.6209 31.6866 66.6209 31.6866C67.6295 28.7096 65.5114 25.7831 65.5114 25.7831C61.8298 27.65 58.5013 25.2281 58.5013 25.2281C55.6771 30.3243 50.8357 28.9115 50.8357 28.9115C50.1801 28.2555 50.6844 28.0537 50.6844 28.0537C56.2319 29.0628 57.997 23.5125 57.997 23.5125C65.0071 28.5583 68.2851 21.141 68.2851 21.141C67.6295 20.2833 67.2261 18.4163 67.2261 18.4163L68.386 18.1641C69.7477 24.2189 74.4883 21.8979 74.4883 21.8979L74.9926 23.008C71.3615 24.7235 69.0416 22.2006 69.0416 22.2006C67.8817 24.1685 66.52 25.1776 66.52 25.1776C70.958 33.1499 64.5532 35.1682 64.5532 35.1682C71.9667 40.0121 73.6309 33.604 73.6309 33.604L74.7909 33.9572C71.5632 42.0303 64.0993 36.3287 64.0993 36.3287C64.5027 39.9616 60.7203 41.0717 60.7203 41.0717C65.5114 41.5258 66.6713 45.5624 66.6713 45.5624C70.252 38.2965 77.0603 41.9799 77.0603 41.9799V43.3422C77.0603 43.3422 74.1857 41.3239 70.958 42.7367C67.7304 44.1496 67.4782 47.177 67.4278 47.2779C67.4278 47.4293 67.3269 48.0348 67.3269 48.0348C64.4019 46.5715 61.9811 47.9843 61.9811 47.9843C58.1483 50.3053 60.0143 54.4933 60.0143 54.4933C63.6454 53.5851 65.9148 56.9152 65.9148 56.9152C69.1929 54.2915 73.1266 57.218 73.1266 57.218L72.471 58.2271C72.471 58.2271 69.2434 55.6538 66.6713 57.8235C64.0993 59.9931 65.2088 62.7683 65.2088 62.7683L64.0993 63.1719C64.0993 63.1719 62.9898 60.4977 65.0575 57.7226C65.0575 57.7226 63.242 54.8465 60.216 55.6538C57.1901 56.4107 56.9884 59.6399 56.9884 59.6399L55.778 59.5895C55.778 59.5895 55.9797 56.4107 58.8544 54.8969C58.9048 54.796 56.6858 49.4476 61.4264 46.8238Z" fill="white"/>
<path d="M108.933 37.1328C108.479 37.6374 107.924 38.041 107.319 38.3942C106.26 38.9493 105.15 39.1006 104.192 39.0502C103.385 39.0502 102.629 38.9493 101.923 38.697C101.368 40.5639 100.41 41.9263 98.9472 42.6831C97.8376 43.2886 96.6777 43.4904 95.5682 43.4904C93.7527 43.4904 92.2901 42.9354 92.1893 42.9354V42.8849C92.1893 42.8849 92.1893 42.8849 92.1388 42.9354C90.8276 43.995 89.1129 44.55 87.0452 44.55C86.3896 44.55 85.734 44.4996 85.0279 44.3987C82.9602 44.0959 81.2455 42.784 80.0856 41.5731V54.3892C80.4386 55.3983 81.0942 56.6598 82.355 57.5175C83.6158 58.3753 85.2296 58.6276 87.1965 58.2239C87.0956 57.013 87.3982 55.6002 88.4069 53.9855L89.4155 54.6415C86.6417 59.0313 90.172 61.4027 90.3233 61.5037L89.6677 62.5128C89.6172 62.5128 88.0034 61.4027 87.3478 59.3845C86.6922 59.5358 86.0366 59.5863 85.4314 59.5863C83.9688 59.5863 82.7081 59.2331 81.5986 58.4762C80.9429 58.0221 80.4386 57.5175 80.0352 56.9625V58.0221C80.0352 71.0905 94.1561 68.5677 97.2325 62.6642C97.2829 62.6642 97.2829 62.6642 97.3333 62.6642C97.9385 61.655 98.4933 60.2422 98.3924 58.7285C98.2915 56.8111 97.2829 54.9947 95.3665 53.3296C94.5091 54.3892 93.2483 55.3479 91.1806 55.8524L90.878 54.6919C96.476 53.2791 95.5178 48.0316 95.4673 47.8297L96.6777 47.5775C96.6777 47.6279 97.1316 49.9994 95.9717 52.27C98.2411 54.1874 99.4515 56.357 99.5523 58.6276C99.6028 60.1413 99.1993 61.5541 98.6446 62.6137C101.116 62.2605 104.091 60.2422 105.251 56.9121C105.251 56.8616 106.462 53.5819 104.949 50.7563C103.99 48.9398 102.074 47.6784 99.3506 47.0224L99.6532 45.8619C102.78 46.6188 104.898 48.082 106.058 50.2012C106.562 51.1599 106.815 52.1691 106.915 53.0773C108.176 51.7654 109.79 49.4948 108.58 47.2747C112.312 44.2977 111.253 38.9997 108.933 37.1328Z" fill="#00125B"/>
<path d="M93.097 20.2359C92.2397 22.8093 90.1216 24.323 88.9616 24.9789C89.819 26.644 89.9703 28.4605 89.9703 29.4192C91.1806 29.3687 92.6431 29.6714 94.257 30.832L93.5509 31.8411C89.2642 28.9146 86.7426 32.3457 86.6417 32.4971L85.6331 31.7907C85.6331 31.7402 86.7426 30.2265 88.7095 29.6714C88.7095 28.6623 88.5077 25.534 86.44 23.8184C84.9775 22.557 82.8089 22.2038 80.0352 22.7588V39.7629C81.0438 41.0243 82.9098 42.8912 85.1792 43.2444C87.8017 43.6481 89.8694 43.2445 91.3319 42.0335C93.4501 40.3179 93.6518 37.4923 93.6518 37.4419L94.8622 37.4923C94.8622 37.5932 94.7109 40.0152 93.0466 41.983C94.0552 42.2353 96.4256 42.6894 98.2411 41.6803C99.401 41.0243 100.208 39.8638 100.662 38.2492C100.158 37.9969 99.7541 37.6437 99.3506 37.24C97.5855 35.3227 97.7872 32.6484 97.8376 32.4971L99.048 32.598C99.048 32.598 98.8967 34.8685 100.258 36.3823C100.511 36.685 100.813 36.8868 101.166 37.0887L101.62 37.2905C101.67 37.2905 104.394 38.451 106.613 37.2905C107.773 36.685 108.529 35.7768 108.882 34.6163C108.983 34.2631 109.034 33.8594 109.084 33.5062C109.134 31.5888 108.529 29.4696 106.613 28.965C107.722 24.9789 105.049 20.791 101.67 20.0341C102.377 22.3551 102.225 24.3734 101.267 25.9376C99.5523 28.8137 95.7195 29.2173 95.5682 29.2173L95.4673 28.0064C95.5178 28.0064 98.7959 27.6532 100.258 25.2817C101.065 23.9193 100.914 22.4056 100.359 19.8827C100.258 19.8827 100.46 19.8827 100.359 19.8827C100.107 17.1581 96.5768 13.6765 92.744 14.4334C93.6014 16.5021 93.7022 18.4699 93.097 20.2359Z" fill="#00125B"/>
<path d="M87.2981 22.8536C87.7015 23.2068 88.0545 23.56 88.3067 23.9636C89.3153 23.4086 91.1813 22.0463 91.9378 19.8261C92.543 18.0097 92.2404 15.9914 91.1309 13.7713C90.2231 12.2575 88.2563 10.3906 85.4321 10.3906C81.8514 10.3906 80.1367 13.3171 80.1367 17.051V21.4912C83.1626 20.8857 85.5834 21.3903 87.2981 22.8536Z" fill="#00125B"/>
<path d="M80.1367 56.9656C82.9609 60.6994 87.4493 59.438 87.4493 59.438C88.105 61.5067 89.7692 62.5663 89.7692 62.5663L90.4248 61.5572C86.6424 58.782 89.5171 54.695 89.5171 54.695L88.5084 54.0391C86.945 56.3096 87.2981 58.2775 87.2981 58.2775C81.5993 59.5389 80.1872 54.4427 80.1872 54.4427V56.9656H80.1367Z" fill="white"/>
<path d="M91.2313 55.8531C94.1564 55.0963 95.4172 53.3303 95.4172 53.3303C100.864 57.9723 97.737 62.7153 97.737 62.7153C98.3422 63.4722 98.7457 62.6648 98.7457 62.6648C101.721 56.7613 96.0223 52.2706 96.0223 52.2706C97.1318 49.9496 96.7284 47.5781 96.7284 47.5781L95.518 47.8304C96.2241 53.7339 90.9287 54.6926 90.9287 54.6926L91.2313 55.8531Z" fill="white"/>
<path d="M100.058 45.6094L99.4521 47.0726C99.4521 47.0726 106.365 47.6277 106.213 53.3798C106.213 53.3798 107.172 53.9348 106.97 53.1275C106.819 52.3202 106.264 47.3754 99.654 45.9121" fill="white"/>
<path d="M80.1367 41.524C80.1367 41.524 84.726 47.2762 92.2404 42.9368C92.2404 42.9368 99.7548 45.6111 101.923 38.6984C101.923 38.6984 106.059 40.0103 108.933 37.1343C108.933 37.1343 109.286 36.5792 108.429 36.3774C108.429 36.3774 107.521 36.9829 106.714 37.2856C105.907 37.5884 104.596 38.1434 102.68 37.5884C100.713 37.0333 99.2 35.9233 99.2 32.5931L97.9897 32.4922C97.9897 32.4922 97.4853 36.2765 100.814 38.2443C100.814 38.2443 99.6539 43.7946 93.1986 41.9781C93.1986 41.9781 94.5098 40.5653 95.0142 37.4875L93.8038 37.437C93.8038 37.437 93.3499 43.3405 87.3485 43.3405C87.3485 43.3405 84.1208 43.6937 81.801 41.4231L80.1872 39.7076V41.524H80.1367Z" fill="white"/>
<path d="M80.1367 22.7037C81.8514 22.1487 84.4234 22.1992 86.5416 23.7633C88.6597 25.3275 88.811 29.6164 88.811 29.6164C87.0963 30.0705 85.7347 31.7356 85.7347 31.7356L86.7433 32.442C89.8701 28.7081 93.6525 31.786 93.6525 31.786L94.3585 30.7769C92.3917 29.4145 90.0718 29.3641 90.0718 29.3641C90.0718 26.9421 89.0632 24.9239 89.0632 24.9239C89.8197 24.5707 92.19 22.7542 93.1986 20.1809C94.2072 17.6076 92.896 14.4287 92.896 14.4287C92.2404 13.7728 92.0891 14.5801 92.0891 14.5801C92.0891 14.5801 92.896 17.103 92.0891 19.8277C91.2318 22.5524 88.458 23.9652 88.458 23.9652C85.8355 20.2313 80.2376 21.4928 80.2376 21.4928V22.7037H80.1367Z" fill="white"/>
<path d="M101.725 20.0297C101.725 20.0297 102.835 22.8553 101.321 25.9332C99.8074 29.0111 95.6195 29.2129 95.6195 29.2129L95.5186 28.002C95.5186 28.002 99.101 27.5478 100.312 25.2773C101.473 23.0067 100.867 20.1306 100.867 20.1306C100.867 20.1306 101.119 19.2224 101.725 20.0297Z" fill="white"/>
</g>
<defs>
<clipPath id="clip0">
<rect width="157.6" height="160" fill="white"/>
</clipPath>
</defs>
</svg>
