<?xml version="1.0" encoding="utf-8"?>
<!-- Generator: Adobe Illustrator 19.0.0, SVG Export Plug-In . SVG Version: 6.00 Build 0)  -->
<svg version="1.1" id="Layer_1" xmlns="http://www.w3.org/2000/svg" xmlns:xlink="http://www.w3.org/1999/xlink" x="0px" y="0px"
	 viewBox="-115 60 48.1 48.1" style="enable-background:new -115 60 48.1 48.1;" xml:space="preserve">
<g>
	<g>
		<path d="M-95.8,62.4v7.2c0,1.3-1.1,2.4-2.4,2.4h-14.4c-1.3,0-2.4-1.1-2.4-2.4v-7.2c0-1.3,1.1-2.4,2.4-2.4h14.4
			C-96.8,60-95.8,61.1-95.8,62.4L-95.8,62.4z M-66.9,80.5v7.2c0,1.3-1.1,2.4-2.4,2.4h-43.3c-1.3,0-2.4-1.1-2.4-2.4v-7.2
			c0-1.3,1.1-2.4,2.4-2.4h43.3l0,0C-68,78-66.9,79.1-66.9,80.5z M-81.3,98.5v7.2c0,1.3-1.1,2.4-2.4,2.4h-28.9
			c-1.3,0-2.4-1.1-2.4-2.4v-7.2c0-1.3,1.1-2.4,2.4-2.4h28.9C-82.4,96.1-81.3,97.2-81.3,98.5z"/>
	</g>
</g>
</svg>
