<svg width="24" height="32" viewBox="0 0 24 32" fill="none" xmlns="http://www.w3.org/2000/svg">
<path d="M23.9693 7.60249C23.9693 7.50311 23.9226 7.45341 23.8759 7.40372C23.8759 7.40372 23.8759 7.35404 23.8291 7.35404C23.7824 7.30435 23.7357 7.20497 23.689 7.15528L16.8206 0.14907C16.7738 0.0993804 16.7271 0.0496925 16.6804 0.0496925H16.6337C16.587 3.03206e-06 16.4935 0 16.4468 0C16.4468 0 16.4468 0 16.4001 0C16.3533 0 16.3066 0 16.2599 0H3.69118C1.68206 0 0 1.73913 0 3.92546V28.0745C0 30.2112 1.63534 32 3.69118 32H20.2314C22.2405 32 23.9226 30.2609 23.9226 28.0745V7.90062C24.016 7.75155 24.016 7.65218 23.9693 7.60249ZM17.1476 2.8323L21.1659 6.90683H19.2035C18.0821 6.90683 17.1476 5.91304 17.1476 4.7205V2.8323ZM20.3249 30.1615H3.78463C2.66326 30.1615 1.72878 29.1677 1.72878 27.9752V3.82609C1.72878 2.63354 2.66326 1.63975 3.78463 1.63975H15.5123V4.77019C15.5123 6.90684 17.1476 8.69565 19.2035 8.69565H22.3807V28.0248C22.3807 29.1677 21.4462 30.1615 20.3249 30.1615ZM18.5961 18.1366C18.5961 18.6335 18.2223 18.9814 17.8018 18.9814H6.44789C5.98065 18.9814 5.60686 18.5839 5.60686 18.1366C5.60686 17.6398 5.98065 17.2919 6.44789 17.2919H17.8018C18.2223 17.2919 18.5961 17.6894 18.5961 18.1366ZM5.51341 12.7702C5.51341 12.2733 5.8872 11.9255 6.30771 11.9255H17.6616C18.1288 11.9255 18.4559 12.323 18.4559 12.7702C18.4559 13.2174 18.0821 13.6149 17.6616 13.6149H6.30771C5.8872 13.6149 5.51341 13.2174 5.51341 12.7702ZM18.5961 23.5528C18.5961 24.0497 18.2223 24.3975 17.8018 24.3975H6.44789C5.98065 24.3975 5.60686 24 5.60686 23.5528C5.60686 23.0559 5.98065 22.7081 6.44789 22.7081H17.8018C18.2223 22.7081 18.5961 23.0559 18.5961 23.5528Z" fill="#333333"/>
</svg>
