<?xml version="1.0" encoding="utf-8"?>
<!-- Generator: Adobe Illustrator 19.0.0, SVG Export Plug-In . SVG Version: 6.00 Build 0)  -->
<svg version="1.1"
	 id="Layer_1" xmlns:svg="http://www.w3.org/2000/svg" xmlns:dc="http://purl.org/dc/elements/1.1/" xmlns:rdf="http://www.w3.org/1999/02/22-rdf-syntax-ns#" xmlns:inkscape="http://www.inkscape.org/namespaces/inkscape" xmlns:sodipodi="http://sodipodi.sourceforge.net/DTD/sodipodi-0.dtd" xmlns:cc="http://creativecommons.org/ns#"
	 xmlns="http://www.w3.org/2000/svg" xmlns:xlink="http://www.w3.org/1999/xlink" x="0px" y="0px" viewBox="-55 17 60 86"
	 style="enable-background:new -55 17 60 86;" xml:space="preserve">
<g transform="translate(0,-952.36218)">
	<path d="M-54.2,969.4c-0.5,0.1-0.8,0.5-0.8,1v84c0,0.6,0.4,1,1,1H4c0.6,0,1-0.4,1-1v-84c0-0.6-0.4-1-1-1h-58
		C-54.1,969.4-54.1,969.4-54.2,969.4z M-53,971.4H3v82h-56V971.4z M-45.2,980.4c-0.5,0.1-0.8,0.5-0.8,1v14c0,0.6,0.4,1,1,1h40
		c0.6,0,1-0.4,1-1v-14c0-0.6-0.4-1-1-1h-40C-45.1,980.4-45.1,980.4-45.2,980.4L-45.2,980.4z M-44,982.4h38v12h-38V982.4z
		 M-45.2,1002.4c-0.5,0.1-0.8,0.5-0.8,1v8c0,0.6,0.4,1,1,1h8c0.6,0,1-0.4,1-1v-8c0-0.6-0.4-1-1-1h-8
		C-45.1,1002.4-45.1,1002.4-45.2,1002.4L-45.2,1002.4z M-29.2,1002.4c-0.5,0.1-0.8,0.5-0.8,1v8c0,0.6,0.4,1,1,1h8c0.6,0,1-0.4,1-1
		v-8c0-0.6-0.4-1-1-1h-8C-29.1,1002.4-29.1,1002.4-29.2,1002.4L-29.2,1002.4z M-13.1,1002.4c-0.5,0-0.9,0.5-0.9,1v8c0,0.6,0.4,1,1,1
		h8c0.6,0,1-0.4,1-1v-8c0-0.5-0.3-0.9-0.8-1c-0.1,0-0.1,0-0.2,0L-13.1,1002.4C-13,1002.4-13,1002.4-13.1,1002.4L-13.1,1002.4z
		 M-44,1004.4h6v6h-6V1004.4z M-28,1004.4h6v6h-6V1004.4z M-12,1004.4h6v6h-6V1004.4z M-45.2,1018.4c-0.5,0.1-0.8,0.5-0.8,1v8
		c0,0.6,0.4,1,1,1h8c0.6,0,1-0.4,1-1v-8c0-0.6-0.4-1-1-1h-8C-45.1,1018.4-45.1,1018.4-45.2,1018.4L-45.2,1018.4z M-29.2,1018.4
		c-0.5,0.1-0.8,0.5-0.8,1v8c0,0.6,0.4,1,1,1h8c0.6,0,1-0.4,1-1v-8c0-0.6-0.4-1-1-1h-8C-29.1,1018.4-29.1,1018.4-29.2,1018.4
		L-29.2,1018.4z M-13.1,1018.4c-0.5,0-0.9,0.5-0.9,1v8c0,0.6,0.4,1,1,1h8c0.6,0,1-0.4,1-1v-8c0-0.5-0.3-0.9-0.8-1
		c-0.1,0-0.1,0-0.2,0L-13.1,1018.4C-13,1018.4-13,1018.4-13.1,1018.4L-13.1,1018.4z M-44,1020.4h6v6h-6V1020.4z M-28,1020.4h6v6h-6
		V1020.4z M-12,1020.4h6v6h-6V1020.4z M-45.2,1034.4c-0.5,0.1-0.8,0.5-0.8,1v8c0,0.6,0.4,1,1,1h8c0.6,0,1-0.4,1-1v-8
		c0-0.6-0.4-1-1-1h-8C-45.1,1034.4-45.1,1034.4-45.2,1034.4z M-29.2,1034.4c-0.5,0.1-0.8,0.5-0.8,1v8c0,0.6,0.4,1,1,1h24
		c0.6,0,1-0.4,1-1v-8c0-0.6-0.4-1-1-1h-24C-29.1,1034.4-29.1,1034.4-29.2,1034.4z M-44,1036.4h6v6h-6V1036.4z M-28,1036.4h22v6h-22
		V1036.4z"/>
</g>
</svg>
