<?xml version="1.0" encoding="UTF-8" standalone="no"?>
<!-- Generator: Adobe Illustrator 22.0.1, SVG Export Plug-In . SVG Version: 6.00 Build 0)  -->

<svg
   xmlns:dc="http://purl.org/dc/elements/1.1/"
   xmlns:cc="http://creativecommons.org/ns#"
   xmlns:rdf="http://www.w3.org/1999/02/22-rdf-syntax-ns#"
   xmlns:svg="http://www.w3.org/2000/svg"
   xmlns="http://www.w3.org/2000/svg"
   xmlns:sodipodi="http://sodipodi.sourceforge.net/DTD/sodipodi-0.dtd"
   xmlns:inkscape="http://www.inkscape.org/namespaces/inkscape"
   version="1.1"
   id="Layer_1"
   x="0px"
   y="0px"
   viewBox="0 0 89.999995 90.000002"
   xml:space="preserve"
   sodipodi:docname="suborg.svg"
   width="90"
   height="90"
   inkscape:version="0.92.4 5da689c313, 2019-01-14"><metadata
   id="metadata11"><rdf:RDF><cc:Work
       rdf:about=""><dc:format>image/svg+xml</dc:format><dc:type
         rdf:resource="http://purl.org/dc/dcmitype/StillImage" /><dc:title>part7glyph</dc:title></cc:Work></rdf:RDF></metadata><defs
   id="defs9" /><sodipodi:namedview
   pagecolor="#ffffff"
   bordercolor="#666666"
   borderopacity="1"
   objecttolerance="10"
   gridtolerance="10"
   guidetolerance="10"
   inkscape:pageopacity="0"
   inkscape:pageshadow="2"
   inkscape:window-width="1920"
   inkscape:window-height="1056"
   id="namedview7"
   showgrid="false"
   inkscape:zoom="2.9280398"
   inkscape:cx="-5.180389"
   inkscape:cy="37.017376"
   inkscape:window-x="0"
   inkscape:window-y="24"
   inkscape:window-maximized="1"
   inkscape:current-layer="Layer_1"
   units="in" />
<path
   d="m 13.008784,72.95 c 0,6.6 5.4,12 12,12 6.6,0 12,-5.4 12,-12 0,-5.1 -3.2,-9.6 -8,-11.3 v -8.2 c 0,-1.3 0.6,-2.5 1.7,-3.2 l 8.6,-5.2 v 0 c 0.6,-0.3 1.3,-0.7 1.9,-1.1 v 0 l 0.1,-0.1 c 1.4,-1 2.6,-2.1 3.7,-3.4 1.1,1.3 2.3,2.4 3.7,3.4 l 0.1,0.1 c 0.1,0 0.1,0.1 0.2,0.1 l 1.6,1 h 0.1 v 0 l 7.9,4.8 0.1,0.1 0.6,0.4 c 1.1,0.7 1.7,2 1.7,3.3 v 8.2 c -6.2,2.2 -9.5,9.1 -7.3,15.3 2.2,6.2 9.1,9.5 15.3,7.3 6.2,-2.2 9.5,-9.1 7.3,-15.3 -1.2,-3.4 -3.9,-6.1 -7.3,-7.3 v -8.2 c 0,-3.9 -1.9,-7.6 -5.1,-9.8 h -0.1 v 0 l -0.1,-0.3 -0.2,-0.1 -0.6,-0.4 -0.1,-0.1 v 0 l -7.8,-4.8 c 0,0 -0.1,0 -0.1,0 v 0 l -1.4,-0.9 c -2,-1.4 -3.6,-3.4 -4.4,-5.8 v -3.3 c 6.2,-2.2 9.5,-9.1 7.3,-15.3 -2.2,-6.1999998 -9.1,-9.5000003 -15.3,-7.3000003 -6.2,2.1999995 -9.6,9.0999993 -7.4,15.4000003 1.2,3.4 3.9,6.1 7.3,7.3 v 3.3 c -0.8,2.3 -2.4,4.3 -4.4,5.7 h -0.1 c -0.4,0.2 -0.7,0.5 -1.1,0.7 0,0 -0.1,0.1 -0.1,0.1 l -0.2,0.1 -7.8,4.7 v 0 c -0.4,0.2 -0.7,0.4 -1,0.6 l -0.1,0.1 c -0.2,0.1 -0.3,0.2 -0.5,0.4 v 0 c -3,2.3 -4.8,5.8 -4.8,9.5 v 8.2 c -4.7,1.7 -7.9,6.2 -7.9,11.3 z"
   id="path4"
   inkscape:connector-curvature="0" />
</svg>
