<?xml version="1.0" encoding="utf-8"?>
<!-- Generator: Adobe Illustrator 19.0.0, SVG Export Plug-In . SVG Version: 6.00 Build 0)  -->
<svg version="1.1" id="Layer_1" xmlns="http://www.w3.org/2000/svg" xmlns:xlink="http://www.w3.org/1999/xlink" x="0px" y="0px"
	 viewBox="-80 29.8 90 63.4" style="enable-background:new -80 29.8 90 63.4;" xml:space="preserve">
<g>
	<path d="M7.1,29.8h-19.1h-1.8h-20.3h-1.8h-20.3h-1.8h-19.1c-1.6,0-2.9,1.3-2.9,2.9v12.5V47v13.6v1.8V76v1.8v12.5
		c0,1.6,1.3,2.9,2.9,2.9h19.1h1.8h20.3h1.8h20.3h1.8H7.1c1.6,0,2.9-1.3,2.9-2.9V77.8V76V62.4v-1.8V47v-1.8V32.8
		C10,31.1,8.7,29.8,7.1,29.8z M-35.9,47v13.6h-20.3V47H-35.9z M-56.2,45.2V31.6h20.3v13.6H-56.2z M-35.9,62.4V76h-20.3V62.4H-35.9z
		 M-35.9,77.8v13.6h-20.3V77.8H-35.9z M-13.8,62.4V76h-20.3V62.4H-13.8z M-34.1,60.6V47h20.3v13.6H-34.1z M-13.8,77.8v13.6h-20.3
		V77.8H-13.8z M-13.8,45.2h-20.3V31.6h20.3C-13.8,31.6-13.8,45.2-13.8,45.2z M-78.2,32.8c0-0.6,0.5-1.2,1.2-1.2h19.1v13.6h-20.3
		V32.8z M-78.2,47h20.3v13.6h-20.3V47z M-78.2,62.4h20.3V76h-20.3V62.4z M-78.2,90.2V77.8h20.3v13.6h-19.1
		C-77.7,91.4-78.2,90.9-78.2,90.2z M8.2,90.2c0,0.6-0.5,1.2-1.2,1.2h-19.1V77.8H8.2V90.2z M8.2,76h-20.3V62.4H8.2V76z M8.2,60.6
		h-20.3V47H8.2V60.6z M8.2,45.2h-20.3V31.6H7.1c0.6,0,1.2,0.5,1.2,1.2V45.2z"/>
	<path d="M-62.2,34.6H-74c-0.5,0-0.9,0.4-0.9,0.9v5.8c0,0.5,0.4,0.9,0.9,0.9h11.8c0.5,0,0.9-0.4,0.9-0.9v-5.8
		C-61.3,35-61.7,34.6-62.2,34.6z"/>
	<path d="M-62.2,50H-74c-0.5,0-0.9,0.4-0.9,0.9v5.8c0,0.5,0.4,0.9,0.9,0.9h11.8c0.5,0,0.9-0.4,0.9-0.9v-5.8
		C-61.3,50.4-61.7,50-62.2,50z"/>
	<path d="M-62.2,65.4H-74c-0.5,0-0.9,0.4-0.9,0.9v5.8c0,0.5,0.4,0.9,0.9,0.9h11.8c0.5,0,0.9-0.4,0.9-0.9v-5.8
		C-61.3,65.8-61.7,65.4-62.2,65.4z"/>
	<path d="M-62.2,80.8H-74c-0.5,0-0.9,0.4-0.9,0.9v5.8c0,0.5,0.4,0.9,0.9,0.9h11.8c0.5,0,0.9-0.4,0.9-0.9v-5.8
		C-61.3,81.2-61.7,80.8-62.2,80.8z"/>
	<path d="M-40.1,34.6h-11.8c-0.5,0-0.9,0.4-0.9,0.9v5.8c0,0.5,0.4,0.9,0.9,0.9h11.8c0.5,0,0.9-0.4,0.9-0.9v-5.8
		C-39.2,35-39.6,34.6-40.1,34.6z"/>
	<path d="M-29.9,42.2h11.8c0.5,0,0.9-0.4,0.9-0.9v-5.8c0-0.5-0.4-0.9-0.9-0.9h-11.8c-0.5,0-0.9,0.4-0.9,0.9v5.8
		C-30.8,41.8-30.4,42.2-29.9,42.2z"/>
	<path d="M4,34.6H-7.8c-0.5,0-0.9,0.4-0.9,0.9v5.8c0,0.5,0.4,0.9,0.9,0.9H4c0.5,0,0.9-0.4,0.9-0.9v-5.8C4.9,35,4.5,34.6,4,34.6z"/>
</g>
</svg>
