<?xml version="1.0" encoding="utf-8"?>
<!-- Generator: Adobe Illustrator 19.0.0, SVG Export Plug-In . SVG Version: 6.00 Build 0)  -->
<svg version="1.1" id="Layer_1" xmlns="http://www.w3.org/2000/svg" xmlns:xlink="http://www.w3.org/1999/xlink" x="0px" y="0px"
	 viewBox="-115 60 48.1 48.1" style="enable-background:new -115 60 48.1 48.1;" xml:space="preserve">
<g>
	<g>
		<path d="M-112.6,88.9h7.2c1.3,0,2.4,1.1,2.4,2.4v14.4c0,1.3-1.1,2.4-2.4,2.4h-7.2c-1.3,0-2.4-1.1-2.4-2.4V91.3
			C-115,90-113.9,88.9-112.6,88.9L-112.6,88.9z M-94.5,60h7.2c1.3,0,2.4,1.1,2.4,2.4v43.3c0,1.3-1.1,2.4-2.4,2.4h-7.2
			c-1.3,0-2.4-1.1-2.4-2.4V62.4l0,0C-97,61.1-95.9,60-94.5,60z M-76.5,74.4h7.2c1.3,0,2.4,1.1,2.4,2.4v28.9c0,1.3-1.1,2.4-2.4,2.4
			h-7.2c-1.3,0-2.4-1.1-2.4-2.4V76.8C-78.9,75.5-77.8,74.4-76.5,74.4z"/>
	</g>
</g>
</svg>
