<?xml version="1.0" encoding="utf-8"?>
<!-- Generator: Adobe Illustrator 19.0.0, SVG Export Plug-In . SVG Version: 6.00 Build 0)  -->
<svg version="1.1" id="Layer_1" xmlns="http://www.w3.org/2000/svg" xmlns:xlink="http://www.w3.org/1999/xlink" x="0px" y="0px"
	 viewBox="-68.9 32.7 87.9 54.3" style="enable-background:new -68.9 32.7 87.9 54.3;" xml:space="preserve">
<path d="M0.7,50.8c-2.8,0-5.5,0.6-8,1.9l-1,0.5L-8.5,52c-1.5-11-11-19.3-22.1-19.3c-12.3,0-22.4,10-22.4,22.4c0,1.4,0.1,2.8,0.4,4.1
	l0.2,1.2l-1.2-0.2c-0.8-0.1-1.4-0.2-2-0.2c-7.4,0-13.4,6-13.4,13.4c0,7.1,5.6,13,12.7,13.4c0.2,0,0.4,0,0.6,0l0.2,0l57.9,0.3
	c1.6,0,2.2-0.2,4.6-1C12.5,83.5,19,77.4,19,69C18.9,59,10.8,50.8,0.7,50.8z"/>
</svg>
