<svg xmlns="http://www.w3.org/2000/svg" viewBox="0 0 139.04 58.89"><defs><style>.cls-1{fill:#028975;fill-rule:evenodd;}</style></defs><title>Diver</title><g id="Layer_2" data-name="Layer 2"><g id="Layer_1-2" data-name="Layer 1"><path class="cls-1" d="M68.29,44.61c-.48-1.63-3-10-3-10s.94-.09,3.09-.25,5.81-1.14,6.66-1.14.79-.23,1.61-.4a39.41,39.41,0,0,0,4.9-1.22,12.59,12.59,0,0,1,3.85-1.87c1.9-.49,15.62-2.06,15.62-2.06a2.83,2.83,0,0,0,1.67.55,32.86,32.86,0,0,1,5.34.44c1,.28,3.39,2.17,3.85,2.41s.38-.11.78,0a42.33,42.33,0,0,1,3.67,2.57c.22.22-.12.51-.62.68s-6,.87-7.45.95-18-2.91-18.36-2.92-.41.69-.41.69a6.31,6.31,0,0,0-1.9.66c-.34.33.2,1.93.2,2.14a2.23,2.23,0,0,0,.14.9c.16.4.8,2.27.8,2.27s-3.14,1.24-3.49,1.46a9.35,9.35,0,0,1-1,.86c-.74.49-8.73,2.58-9.42,3.08a8,8,0,0,0-2.34,1.66,25.13,25.13,0,0,1-2.9,2.6s-.79-2.46-1.27-4.08ZM17,8.19s-1.43.56-1.77.75a.81.81,0,0,1-.79-.08,1.69,1.69,0,0,1-.66-.56,4.69,4.69,0,0,0-1.34-1.54,4.15,4.15,0,0,0-2.9-1c-1.35-.06-4.5,1.43-5.39,2s-1.23.75-1.41,1.63A12.75,12.75,0,0,0,2.51,11a.79.79,0,0,0-.36.29c-.15.22-.5.9-.5.9a11.71,11.71,0,0,0-1.59.93,25.29,25.29,0,0,0,1.56,4.53,14.1,14.1,0,0,0,1.69.27,4.59,4.59,0,0,1,0,.72,2,2,0,0,0,0,.53c0,.18,0,.21,0,.21S1.4,20.44,1.22,20.47a2.43,2.43,0,0,0-.91.28c-.2.18-.37.39-.29,1.11a7.39,7.39,0,0,0,1.41,2.82c.39.29,1,.43,1.2.18A4.69,4.69,0,0,0,3.18,24l.22-.06a1.07,1.07,0,0,1,.35.28c.08.14.12.55.34.54s1.62-.66,1.74-1,.26-1.37.39-1.5.81.21,1.53,0,1.88-1,2.39-1a11.9,11.9,0,0,1,2.11.68,9.12,9.12,0,0,0,.12,1.63,1,1,0,0,0,.65.25,1.36,1.36,0,0,1,.34,0s1.72,4.73,2.38,6S18.9,34.76,19,35a3.74,3.74,0,0,1,.12.56s-.71.69-.71,1,.33,1,.55,1a.75.75,0,0,1,.34,0s-.11.23.17.61a2.11,2.11,0,0,0,1,.56,1.61,1.61,0,0,0,.15.77c.16.25.36.61.66.5a3.9,3.9,0,0,0,.95-.62c.11-.1.41,0,.57-.08a1.81,1.81,0,0,0,.7-.49A6,6,0,0,0,24.56,37c.12-.53.2-.58.2-.58s3.43-1.22,4.4-1.38a7.93,7.93,0,0,0,1.67-.48l-.23.85a.58.58,0,0,0-.4.58c0,.45,0,.76.34.85a2.9,2.9,0,0,0,.75.09,15.72,15.72,0,0,0,.84,1.43c.19.21.35.15.29.48s-.33.89,0,1.25.74.87.94.48.28-.41.41-.32.3.06.42.34a2.15,2.15,0,0,0,.36.71c.18.19.12.18.47.25l.69.14s.62,2.63.69,3,.18.65,0,.73a1.6,1.6,0,0,1-.59.26c-.21,0-.37.91-.18,1.88a3.54,3.54,0,0,0,1.09,2,3.87,3.87,0,0,0,1.53.4.63.63,0,0,0,.45,0c.28-.09,1.93-.57,2-.82a36.11,36.11,0,0,0-1.12-5c-.3-.52-.29-.56-.51-.54s-1.33.47-1.35.36S37,41.6,37,41.6a2.71,2.71,0,0,0,.58-.54c.13-.23,0-.42.31-.39s.73.15,1-.13a7,7,0,0,0,.7-1.79c.1-.26.51-.82.64-.81h.16s2.05,9.92,3,12.32.92,2.4,1.29,2.43,1.81-.52,1.8-.91-.63-1.1-.63-1.1a1.4,1.4,0,0,1-.25-.65,7.94,7.94,0,0,1-.22-1.23c0-.55-2.91-6.63-3.19-7.37s-.21-2.13-.45-2.85-.51-1-.58-1.31-.34-.24-.12-.49.46-.59.85-.43.72.23.72.66-.46.41.17.46,2.06.29,2.06.29-.23,4.31.1,5.2,2.75,3,3.52,3.46A2.78,2.78,0,0,0,50,47c.43.05.92.08.79-.16s-1-2.45-1-2.45a6.58,6.58,0,0,1-2.12-.26,1.59,1.59,0,0,1-.56-.81L48,37.43s.5,0,.58-.35a10.25,10.25,0,0,0,.12-1,1.37,1.37,0,0,0,.82.38c.66.13,1.52.26,1.52.26A66.25,66.25,0,0,0,55,45.43a77.4,77.4,0,0,0,7.45,10.2,2.44,2.44,0,0,0,.35.13,8.11,8.11,0,0,0,1.86,2.08,5.22,5.22,0,0,0,3.09,1A10.61,10.61,0,0,0,73,57.51c1.23-.85,7.27-4,9.29-5.78s7-6.07,7-6.07A1.32,1.32,0,0,0,91,45.54a25.56,25.56,0,0,1,4-3.14,5.8,5.8,0,0,1,2.35-.89c.66-.13,4.17-1.29,7.3-2s11.13-.39,12.56-.7A20.15,20.15,0,0,1,120,38.4S129.6,48,132,49.51s4.85,3.36,5.45,3.74a4.61,4.61,0,0,0,1.26.51,35,35,0,0,1-.49-4.53,12.48,12.48,0,0,1,.58-1.62c.12-.36.39-.9,0-1.27s-9.81-7.85-10.64-8.61-.86-1-.86-1a50.75,50.75,0,0,0,5.61-3,21.32,21.32,0,0,0,3.46-3.21A14.78,14.78,0,0,0,134,28.42a17.36,17.36,0,0,0-2.67-.24,10.78,10.78,0,0,1-2.63-.7s-.2-.46-.41-.29-4.16,3.79-4.48,3.86a8,8,0,0,0-1.33.71,39.27,39.27,0,0,1-3.73-4.92,38.5,38.5,0,0,0-5.21-6.63,2.89,2.89,0,0,0-1.06-.46c-.2,0-.66-.31-.92-.28a11,11,0,0,0-2.41,1c-.59.39-1,1-1.5,1.14s-1.17.1-1.43.31-.25.41-.8.6-3.49-.19-4.06-.09-.45.33-.74.27-8-1.48-11-1.45A25.05,25.05,0,0,0,82,22.71a16.38,16.38,0,0,1-3.16,1.11L75.75,24a18.87,18.87,0,0,0-4.34-.83c-2.88-.29-9.49-1.28-10.09-1.65a12.57,12.57,0,0,0-3.76-2.25,24.32,24.32,0,0,0-4.26-.61S49,20.26,48.51,20a11.81,11.81,0,0,0-1.84-1.22c-.91-.35-2-.66-1.77-.91s.25-.42.78-.31,7.78,1.1,7.9.7,2.48-9.37,2.65-10.4.38-1,.07-1.22-3.18-.89-3.18-.89A4.62,4.62,0,0,0,52,5.06c-.55-.24-5.9-1.36-5.9-1.36l-.43,0L39.17,2s.13-.62,0-.7A16.83,16.83,0,0,0,35.9.53a1.41,1.41,0,0,1-.26.31S31.06,0,30.54,0,28.05,1.14,27,1.55,25.28,3.09,25.09,3a1.38,1.38,0,0,1-.31-.27s-1.94-.28-2-.27-.89.48-.89.48.11-.14-.41-.29a3.16,3.16,0,0,0-.93-.13s.73-.55.78-.8a8,8,0,0,0,.06-.92A10.62,10.62,0,0,0,19.21.38a3.36,3.36,0,0,0-.4.84,8,8,0,0,0-1.09.61A7.62,7.62,0,0,0,17.1,2.9c-.29.58.23,1.78.34,2.09l.19.55s.65.62.63.91-.35.7-.43.89a6.13,6.13,0,0,1-.84.85Zm3.93.54a8.15,8.15,0,0,1-2.06.4c-.12-.06-.25-.4-.25-.4l.67-1.22s0,0,0,0a4.43,4.43,0,0,1,.74.35,11.54,11.54,0,0,0,1,.5c.13.05,0,.18-.15.32Zm-6,14.76s.15-.12.24-.07.31.78.4.88-.09.24-.2.24a4.7,4.7,0,0,1-.44-1.05Zm6,7.88a1,1,0,0,0,.59-.09c.08-.09.13-.4.22-.57s.18,0,.27,0,1.78,1,2.15,1.18.63.36.63.46-.75.53-.93.6a2.78,2.78,0,0,1-.8.27c-.28,0-.57-.46-1.15-.64a6.8,6.8,0,0,0-1.64-.16c-.3,0-.62-.42-.71-.52s.15-.53.15-.53,1.08-.06,1.22,0Zm-2-2.33c0-.1.4.16.51.25s0,1.37-.14,1.44-.41-1.06-.46-1.31.05-.28.09-.38Zm-2-1.76c.11,0,.52.27.72.42l.73,1.46c.1.22.59,2,.73,2.3s-.46-.71-.59-.86-1.9-2.51-2-2.63.26-.65.37-.69ZM20,6.65Zm1.88,1.17a2.75,2.75,0,0,1-.64-.06,3.13,3.13,0,0,1-1-.52A3.21,3.21,0,0,1,20,6.65s.7-.26,1.1-.36A11.55,11.55,0,0,1,22.82,6a1.71,1.71,0,0,1,.55.45c.05.08,0,.17-.17.45a7.14,7.14,0,0,1-1.36,1ZM19.28,2.66a15.71,15.71,0,0,1-.48,2.59c-.2.21-.62-.45-.88-.84a1.71,1.71,0,0,1,0-1.48,1.78,1.78,0,0,1,.82-.71c.17-.09.45.31.49.44Zm-3.4,22.43a13.57,13.57,0,0,1,.75,1.16c0,.08-.46.29-.56.25a5.94,5.94,0,0,1-.43-1.27S15.83,25,15.88,25.09Z"/></g></g></svg>