<svg xmlns="http://www.w3.org/2000/svg" viewBox="0 0 78.08 37.04"><defs><style>.cls-1{fill:#028975;}</style></defs><title>fishes-large</title><g id="Layer_2" data-name="Layer 2"><g id="Layer_1-2" data-name="Layer 1"><path class="cls-1" d="M64.89,6.33a2.53,2.53,0,0,0,2.49-.76A13.25,13.25,0,0,0,69,3.35a11.54,11.54,0,0,1,1.7-2A4,4,0,0,1,74.06.06a4.41,4.41,0,0,0-2.41,2.81,3.16,3.16,0,0,1,3.61,3.4,4.14,4.14,0,0,1,2.82-1.48,5.27,5.27,0,0,0-1,5.43c.06.15.12.33,0,.44a3.13,3.13,0,0,1-1.8-2c0-.16-.11-.36-.27-.36a6.45,6.45,0,0,0-.26,3.65.3.3,0,0,1,0,.26c0,.06-.15.06-.23.06-1.31,0-2.63-.09-3.94-.18a.79.79,0,0,0,0,.62c0,.11.08.2.1.31a.26.26,0,0,1-.1.28c-.11.07-.25,0-.38,0s-.29,0-.29.14a.25.25,0,0,0,.1.17l.36.35a1.55,1.55,0,0,1-1.75-.71,3.29,3.29,0,0,1-.37-2c0-.38-.58-.67-.79-1S67.21,9.3,67,8.88a2.39,2.39,0,0,0-.64-.67,2.85,2.85,0,0,0-1.66-.82A6.66,6.66,0,0,0,64.89,6.33Z"/><path class="cls-1" d="M0,24.44a5.07,5.07,0,0,0,4.48-2.6,26.06,26.06,0,0,0,2.09-5A23.52,23.52,0,0,1,9,12.21c1.4-2.06,3.43-4,5.92-4a8.68,8.68,0,0,0-3.38,6.52A6.3,6.3,0,0,1,20,19.63,8.19,8.19,0,0,1,24.8,15.5a10.49,10.49,0,0,0,.54,11c.18.25.38.58.23.85a6.22,6.22,0,0,1-4.39-3.09c-.15-.28-.38-.64-.69-.56-.15,2.45-.09,5.06,1.15,7.18.08.15.18.33.11.48a.52.52,0,0,1-.41.23q-3.84.8-7.71,1.43a1.73,1.73,0,0,0,.22,1.22,3.06,3.06,0,0,1,.34.54.56.56,0,0,1-.07.6c-.19.17-.48.12-.73.12s-.57.16-.51.41a.51.51,0,0,0,.26.28l.87.51a3.06,3.06,0,0,1-3.7-.59A6.35,6.35,0,0,1,8.7,32.41c-.12-.76-1.43-1-2-1.56s-.88-1.72-1.53-2.43a4.73,4.73,0,0,0-1.54-1,5.77,5.77,0,0,0-3.58-.84A12.61,12.61,0,0,0,0,24.44Z"/><path class="cls-1" d="M50.53,27.44a3.17,3.17,0,0,0,2.93-1.38A16.35,16.35,0,0,0,55,23a13.84,13.84,0,0,1,1.75-2.74c1-1.21,2.35-2.32,3.91-2.2A5.44,5.44,0,0,0,58.24,22a4,4,0,0,1,3.37.56,4.05,4.05,0,0,1,1.67,3,5.14,5.14,0,0,1,3.19-2.32,6.57,6.57,0,0,0-.25,6.86c.1.17.2.38.1.54a3.87,3.87,0,0,1-2.58-2.16c-.07-.18-.2-.42-.4-.38a8,8,0,0,0,.33,4.53c0,.1.1.22,0,.31s-.17.11-.27.12c-1.62.19-3.25.35-4.88.47a1.05,1.05,0,0,0,.07.78,2.91,2.91,0,0,1,.18.35.33.33,0,0,1-.08.37c-.12.1-.3,0-.46,0s-.36.07-.34.22.09.14.15.19l.52.37a1.92,1.92,0,0,1-2.28-.57,4,4,0,0,1-.81-2.36c0-.48-.84-.72-1.15-1.08s-.46-1.12-.82-1.6a3.15,3.15,0,0,0-.91-.71,3.57,3.57,0,0,0-2.19-.72A7.43,7.43,0,0,0,50.53,27.44Z"/><path class="cls-1" d="M37.89,17.89a2.56,2.56,0,0,0,2.59-.36,13.11,13.11,0,0,0,1.93-1.94,11.13,11.13,0,0,1,2-1.69,4,4,0,0,1,3.53-.76,4.36,4.36,0,0,0-2.82,2.4,3.17,3.17,0,0,1,3,3.92,4.12,4.12,0,0,1,3-1,5.28,5.28,0,0,0-1.84,5.21c0,.15.07.34,0,.44a3.15,3.15,0,0,1-1.46-2.28c0-.16-.06-.37-.22-.39A6.43,6.43,0,0,0,46.76,25a.2.2,0,0,1-.27.28c-1.3-.24-2.59-.51-3.87-.8a.83.83,0,0,0-.13.61,1.7,1.7,0,0,1,.06.31.28.28,0,0,1-.15.27c-.12,0-.25,0-.36-.08s-.3,0-.32.09a.26.26,0,0,0,.07.18c.1.13.2.27.31.4a1.54,1.54,0,0,1-1.62-1,3.18,3.18,0,0,1,0-2c.09-.38-.48-.76-.63-1.11s-.09-1-.25-1.43A2.48,2.48,0,0,0,39,20a2.88,2.88,0,0,0-1.51-1.08A6,6,0,0,0,37.89,17.89Z"/></g></g></svg>