<svg xmlns="http://www.w3.org/2000/svg" viewBox="0 0 116.59 55.31"><defs><style>.cls-1{fill:#028975;}</style></defs><title>fishes-dory-right</title><g id="Layer_2" data-name="Layer 2"><g id="Layer_1-2" data-name="Layer 1"><path class="cls-1" d="M19.7,9.46A3.83,3.83,0,0,1,16,8.32,20.29,20.29,0,0,1,13.58,5,17.17,17.17,0,0,0,11,2C9.65.77,7.83-.32,6,.09A6.53,6.53,0,0,1,9.59,4.28,4.77,4.77,0,0,0,5.68,5.53,4.83,4.83,0,0,0,4.2,9.36,6.15,6.15,0,0,0,0,7.15a7.88,7.88,0,0,1,1.48,8.12c-.09.21-.18.48,0,.65a4.68,4.68,0,0,0,2.69-3c0-.23.16-.53.41-.52a9.61,9.61,0,0,1,.38,5.45.4.4,0,0,0,0,.37.41.41,0,0,0,.34.1c2,0,3.93-.14,5.89-.27a1.3,1.3,0,0,1,.05.93,2.51,2.51,0,0,0-.16.46.42.42,0,0,0,.16.42c.16.1.37,0,.55,0s.45,0,.45.22-.08.17-.15.24l-.55.53a2.33,2.33,0,0,0,2.61-1.06,4.84,4.84,0,0,0,.56-2.95c0-.58.87-1,1.19-1.49s.35-1.41.7-2a3.65,3.65,0,0,1,1-1A4.28,4.28,0,0,1,20,11,8.58,8.58,0,0,1,19.7,9.46Z"/><path class="cls-1" d="M116.59,36.49c-2.7.28-5.23-1.59-6.7-3.88s-2.15-5-3.12-7.5a33.9,33.9,0,0,0-3.6-6.88c-2.08-3.07-5.12-6-8.83-6a13,13,0,0,1,5,9.73,9.4,9.4,0,0,0-12.71,7.38,12.26,12.26,0,0,0-7.13-6.17,15.64,15.64,0,0,1-.8,16.36c-.27.38-.56.86-.34,1.26A9.28,9.28,0,0,0,85,36.16c.22-.43.56-1,1-.84.22,3.65.13,7.55-1.72,10.71a.82.82,0,0,0-.16.73c.1.22.37.29.6.34q5.73,1.18,11.51,2.13a2.51,2.51,0,0,1-.33,1.82,5.7,5.7,0,0,0-.5.81.83.83,0,0,0,.11.9c.27.26.71.17,1.08.17s.86.25.77.62c0,.19-.23.31-.4.41l-1.3.76a4.59,4.59,0,0,0,5.53-.87,9.47,9.47,0,0,0,2.4-5.45c.18-1.13,2.15-1.54,3-2.33,1-1,1.31-2.57,2.28-3.63a7.46,7.46,0,0,1,2.3-1.51c1.68-.81,3.53-1.65,5.35-1.26A17.75,17.75,0,0,1,116.59,36.49Z"/><path class="cls-1" d="M41.14,41a4.75,4.75,0,0,1-4.39-2,26.07,26.07,0,0,1-2.35-4.51,21.41,21.41,0,0,0-2.61-4.1C30.32,28.51,28.27,26.85,26,27a8.12,8.12,0,0,1,3.67,5.79,5.9,5.9,0,0,0-7.53,5.29,7.62,7.62,0,0,0-4.77-3.46,9.81,9.81,0,0,1,.38,10.24c-.15.25-.31.57-.15.81a5.82,5.82,0,0,0,3.84-3.23c.12-.28.31-.63.6-.58.34,2.27.49,4.71-.49,6.77a.53.53,0,0,0-.06.47c.07.13.24.16.39.18q3.64.42,7.29.71a1.63,1.63,0,0,1-.1,1.15,3.84,3.84,0,0,0-.28.53.52.52,0,0,0,.12.55c.19.15.45.07.69,0s.54.11.51.34a.46.46,0,0,1-.23.28l-.76.55a2.9,2.9,0,0,0,3.4-.84,6,6,0,0,0,1.2-3.53c0-.72,1.25-1.07,1.72-1.62s.69-1.67,1.23-2.38A4.42,4.42,0,0,1,38,44,5.37,5.37,0,0,1,41.26,43,10.19,10.19,0,0,1,41.14,41Z"/><path class="cls-1" d="M60,26.71a3.83,3.83,0,0,1-3.86-.53,20.31,20.31,0,0,1-2.89-2.9,16.84,16.84,0,0,0-3-2.53c-1.55-1-3.53-1.82-5.26-1.13a6.62,6.62,0,0,1,4.21,3.58,4.73,4.73,0,0,0-4.53,5.86,6.22,6.22,0,0,0-4.49-1.52,7.9,7.9,0,0,1,2.74,7.79c-.06.22-.1.5.08.65a4.68,4.68,0,0,0,2.18-3.4c0-.24.08-.55.32-.58a9.49,9.49,0,0,1,1.24,5.32.43.43,0,0,0,.06.37.42.42,0,0,0,.35,0q2.89-.54,5.78-1.2a1.29,1.29,0,0,1,.19.91,2.67,2.67,0,0,0-.08.48.4.4,0,0,0,.22.39c.18.07.36-.05.54-.12s.44,0,.47.14a.35.35,0,0,1-.1.27l-.46.6a2.32,2.32,0,0,0,2.41-1.46,4.87,4.87,0,0,0,.08-3c-.13-.56.71-1.12.94-1.65s.13-1.45.37-2.13a3.71,3.71,0,0,1,.79-1.14,4.35,4.35,0,0,1,2.26-1.61A9.07,9.07,0,0,1,60,26.71Z"/></g></g></svg>