<svg xmlns="http://www.w3.org/2000/svg" viewBox="0 0 164.03 43.15"><defs><style>.cls-1{fill:#028975;}</style></defs><title>fishes</title><g id="Layer_2" data-name="Layer 2"><g id="Layer_1-2" data-name="Layer 1"><path class="cls-1" d="M38.73,34.91a13.74,13.74,0,0,1,3.89-2.23,6.71,6.71,0,0,0,2.27-.88c.64-.52.87-1.65.2-2.11a3,3,0,0,1,3.1,1.2,19.53,19.53,0,0,1,1.41,3.2c.51,1.06,1.64,2,2.75,1.67.9-.28,1.35-1.26,2-1.89a3.22,3.22,0,0,1,3.71-.42.68.68,0,0,1,.41.5c0,.28-.27.47-.5.62a5.33,5.33,0,0,0-2.07,3.51,16.25,16.25,0,0,0,0,4.18,3.52,3.52,0,0,1-3.18-2.17A5.24,5.24,0,0,0,52,38.28c-.45-.49-1.48-.45-1.57.2-.07.49.42,1.07.07,1.42a1.77,1.77,0,0,1-1.94-1.09l-2.26.59c-.1.42.27.78.56,1.1s.49.89.14,1.14a.81.81,0,0,1-.46.12,5,5,0,0,1-4-1.91,5.87,5.87,0,0,0-.83-1,6.54,6.54,0,0,0-1.47-.74,4,4,0,0,1-2.07-2.58A4.64,4.64,0,0,1,38.73,34.91Z"/><path class="cls-1" d="M0,31.65a4.8,4.8,0,0,0,2,3.48A8.62,8.62,0,0,1,3.58,36.3a7,7,0,0,1,.79,1.38,6,6,0,0,0,4.41,3,.92.92,0,0,0,.57,0c.46-.24.33-.94.05-1.38s-.65-.95-.45-1.43l2.81-.27a2.13,2.13,0,0,0,2.11,1.68c.48-.35,0-1.13.19-1.7.23-.77,1.47-.61,1.91.06A6.59,6.59,0,0,1,16.54,40a4.24,4.24,0,0,0,3.38,3.2,19.4,19.4,0,0,1,.79-5,6.43,6.43,0,0,1,3.15-3.79c.3-.14.68-.31.72-.65a.84.84,0,0,0-.39-.68,3.9,3.9,0,0,0-4.51-.21c-.94.62-1.67,1.7-2.79,1.86-1.4.2-2.56-1.17-3-2.52s-.41-2.84-1.06-4.1a3.65,3.65,0,0,0-3.46-2c.71.68.21,2-.64,2.48a8,8,0,0,1-2.89.61A16.5,16.5,0,0,0,.8,31.05,5.22,5.22,0,0,0,0,31.65Z"/><path class="cls-1" d="M45.1,17.39a3.28,3.28,0,0,0,1.72,2.14,5.39,5.39,0,0,1,1.22.62,4.75,4.75,0,0,1,.69.85,4.09,4.09,0,0,0,3.32,1.58.6.6,0,0,0,.38-.1c.29-.21.12-.67-.11-.94s-.55-.57-.47-.92l1.88-.49a1.47,1.47,0,0,0,1.61.91c.29-.3-.11-.77-.06-1.18s.94-.57,1.31-.17a4.62,4.62,0,0,1,.64,1.51A2.9,2.9,0,0,0,59.87,23a12.93,12.93,0,0,1,0-3.46,4.35,4.35,0,0,1,1.71-2.91c.2-.13.43-.29.42-.52a.55.55,0,0,0-.34-.42,2.69,2.69,0,0,0-3.08.35c-.57.53-.94,1.34-1.68,1.57-.93.29-1.86-.51-2.29-1.38a16,16,0,0,0-1.17-2.67,2.52,2.52,0,0,0-2.57-1c.56.39.36,1.32-.17,1.75a5.31,5.31,0,0,1-1.88.73,11.22,11.22,0,0,0-3.23,1.86A4.45,4.45,0,0,0,45.1,17.39Z"/><path class="cls-1" d="M27.47,24.41a2.72,2.72,0,0,0,1.41,1.75,4.68,4.68,0,0,1,1,.5,3.82,3.82,0,0,1,.56.7,3.34,3.34,0,0,0,2.72,1.29.5.5,0,0,0,.31-.08c.23-.17.1-.55-.1-.77s-.45-.47-.38-.75l1.53-.4a1.22,1.22,0,0,0,1.33.74c.23-.24-.1-.63-.05-1s.76-.47,1.06-.14a3.67,3.67,0,0,1,.53,1.23A2.38,2.38,0,0,0,39.55,29a10.32,10.32,0,0,1,0-2.83,3.65,3.65,0,0,1,1.4-2.39c.16-.1.35-.23.34-.42s-.14-.27-.27-.34a2.21,2.21,0,0,0-2.52.28c-.47.44-.77,1.1-1.38,1.29s-1.52-.42-1.87-1.13a13.34,13.34,0,0,0-1-2.18,2,2,0,0,0-2.1-.81c.45.31.3,1.08-.14,1.43a4.5,4.5,0,0,1-1.54.6A9.27,9.27,0,0,0,27.86,24,5.08,5.08,0,0,0,27.47,24.41Z"/><path class="cls-1" d="M96.59,23.6a2.68,2.68,0,0,0,1.59,1.57,4.54,4.54,0,0,1,1,.39,3.76,3.76,0,0,1,.64.62,3.36,3.36,0,0,0,2.85,1A.6.6,0,0,0,103,27c.22-.2,0-.56-.18-.76s-.5-.41-.47-.7l1.48-.58a1.21,1.21,0,0,0,1.4.58c.2-.26-.17-.61-.16-.95s.7-.55,1-.26a3.68,3.68,0,0,1,.66,1.16,2.38,2.38,0,0,0,2.32,1.21,10.75,10.75,0,0,1-.34-2.81,3.6,3.6,0,0,1,1.12-2.53c.14-.13.32-.27.29-.46a.49.49,0,0,0-.32-.31,2.19,2.19,0,0,0-2.47.58c-.41.48-.64,1.17-1.22,1.43s-1.56-.23-2-.9a12.65,12.65,0,0,0-1.2-2,2,2,0,0,0-2.18-.56c.49.26.42,1,0,1.43a4.56,4.56,0,0,1-1.46.78,9.37,9.37,0,0,0-2.45,1.81A2.89,2.89,0,0,0,96.59,23.6Z"/><path class="cls-1" d="M84.58,19.34a2,2,0,0,0,1.16,1.14,3.47,3.47,0,0,1,.76.28,3.26,3.26,0,0,1,.46.45,2.45,2.45,0,0,0,2.07.7.42.42,0,0,0,.22-.08c.15-.14,0-.41-.14-.55s-.36-.29-.34-.5l1.07-.42a.89.89,0,0,0,1,.42c.15-.19-.12-.45-.12-.69s.51-.4.76-.19a2.88,2.88,0,0,1,.48.84,1.74,1.74,0,0,0,1.68.88,7.86,7.86,0,0,1-.25-2,2.57,2.57,0,0,1,.81-1.83c.1-.09.23-.2.21-.34a.34.34,0,0,0-.23-.22,1.59,1.59,0,0,0-1.79.42c-.3.35-.46.85-.88,1A1.26,1.26,0,0,1,90.09,18a10,10,0,0,0-.88-1.48,1.47,1.47,0,0,0-1.58-.41c.36.19.31.75,0,1a3.17,3.17,0,0,1-1.06.56A6.7,6.7,0,0,0,84.82,19,3.81,3.81,0,0,0,84.58,19.34Z"/><path class="cls-1" d="M125.35,9.36a2,2,0,0,0,1.25,1.05,3.25,3.25,0,0,1,.77.22,2.86,2.86,0,0,1,.5.42,2.42,2.42,0,0,0,2.11.54.38.38,0,0,0,.21-.1c.15-.15,0-.4-.17-.53s-.38-.27-.38-.48l1-.5a.87.87,0,0,0,1,.34c.14-.2-.15-.43-.17-.68s.48-.44.74-.24.37.53.55.8a1.75,1.75,0,0,0,1.74.75,7.39,7.39,0,0,1-.4-2A2.61,2.61,0,0,1,134.85,7c.09-.09.21-.21.18-.34s-.14-.17-.24-.21A1.61,1.61,0,0,0,133,7c-.27.37-.39.89-.8,1.11a1.27,1.27,0,0,1-1.49-.55,8.85,8.85,0,0,0-1-1.41,1.48,1.48,0,0,0-1.61-.29c.37.16.36.73.11,1a3.15,3.15,0,0,1-1,.64A7.2,7.2,0,0,0,125.57,9,2,2,0,0,0,125.35,9.36Z"/><path class="cls-1" d="M116.21,3.59a1.94,1.94,0,0,0,1.24,1,3.48,3.48,0,0,1,.78.22,3.2,3.2,0,0,1,.5.41,2.38,2.38,0,0,0,2.11.55.38.38,0,0,0,.21-.1c.14-.16,0-.41-.18-.54s-.38-.27-.37-.48l1-.5a.88.88,0,0,0,1,.35c.13-.2-.16-.44-.17-.68s.48-.44.74-.25a2.67,2.67,0,0,1,.54.81,1.73,1.73,0,0,0,1.74.74,7.62,7.62,0,0,1-.39-2,2.58,2.58,0,0,1,.66-1.89c.1-.1.22-.21.19-.35a.32.32,0,0,0-.25-.2,1.58,1.58,0,0,0-1.75.55c-.27.37-.4.88-.8,1.1a1.25,1.25,0,0,1-1.49-.54,10.21,10.21,0,0,0-1-1.42A1.5,1.5,0,0,0,119,.12c.37.17.36.73.1,1a3.21,3.21,0,0,1-1,.64,6.59,6.59,0,0,0-1.67,1.45A2,2,0,0,0,116.21,3.59Z"/><path class="cls-1" d="M69.54,28A12.14,12.14,0,0,0,63.45,31c.17.77,1,1.15,1.76,1.39a31.13,31.13,0,0,0,7.41,1.42A2.56,2.56,0,0,0,75,33a2.51,2.51,0,0,1,.49-.74,1.13,1.13,0,0,1,1-.07,3.52,3.52,0,0,1,2.18,2.1A13.68,13.68,0,0,1,79,28.6a4.21,4.21,0,0,1-1.44,1.63c-1.59.94-2.14-.61-3.33-1.32A7.47,7.47,0,0,0,69.54,28Z"/><path class="cls-1" d="M113.47,29.92a9.73,9.73,0,0,0-4.67,2.83c.2.6.91.85,1.53,1a25.36,25.36,0,0,0,6.08.55c.71,0,1.54-.14,1.87-.77a2.45,2.45,0,0,1,.34-.64.92.92,0,0,1,.83-.13,2.82,2.82,0,0,1,1.92,1.51,11.18,11.18,0,0,1-.23-4.64,3.44,3.44,0,0,1-1,1.43c-1.21.89-1.77-.32-2.79-.8A6.06,6.06,0,0,0,113.47,29.92Z"/><path class="cls-1" d="M125.36,19a7.33,7.33,0,0,0-3.49,2.12c.15.45.68.63,1.14.73a18.86,18.86,0,0,0,4.55.41c.53,0,1.16-.11,1.4-.57.09-.16.12-.36.25-.48a.68.68,0,0,1,.62-.1,2.09,2.09,0,0,1,1.44,1.13,8.3,8.3,0,0,1-.17-3.47,2.58,2.58,0,0,1-.77,1.07c-.9.66-1.33-.24-2.09-.6A4.52,4.52,0,0,0,125.36,19Z"/><path class="cls-1" d="M114,14.74a7.39,7.39,0,0,0-3.5,2.12c.15.45.68.63,1.15.73a19.29,19.29,0,0,0,4.55.42c.53,0,1.15-.11,1.4-.58a2,2,0,0,1,.25-.48.71.71,0,0,1,.62-.1A2.11,2.11,0,0,1,119.91,18a8.29,8.29,0,0,1-.17-3.47,2.54,2.54,0,0,1-.78,1.07c-.9.67-1.32-.24-2.08-.6A4.59,4.59,0,0,0,114,14.74Z"/><path class="cls-1" d="M78.4,22.79a6.53,6.53,0,0,0-3.51,1.08c0,.42.46.7.84.89a17.61,17.61,0,0,0,3.87,1.36,1.41,1.41,0,0,0,1.35-.2c.11-.12.18-.28.32-.36a.59.59,0,0,1,.56.05,1.91,1.91,0,0,1,1,1.3,7.31,7.31,0,0,1,.61-3.06,2.38,2.38,0,0,1-.91.76c-.93.38-1.1-.5-1.69-1A4.06,4.06,0,0,0,78.4,22.79Z"/><path class="cls-1" d="M142.17,14.4A12.1,12.1,0,0,0,136.44,18c.25.74,1.14,1,1.91,1.18a31,31,0,0,0,7.51.59c.87,0,1.9-.2,2.3-1a3.09,3.09,0,0,1,.4-.79,1.14,1.14,0,0,1,1-.18,3.53,3.53,0,0,1,2.4,1.84,13.81,13.81,0,0,1-.36-5.72,4.25,4.25,0,0,1-1.25,1.78c-1.47,1.11-2.19-.37-3.46-.95A7.48,7.48,0,0,0,142.17,14.4Z"/><path class="cls-1" d="M158.9,8.73a6.56,6.56,0,0,0-3.37,1.46c.08.42.53.65.93.79a16.71,16.71,0,0,0,4,.92,1.41,1.41,0,0,0,1.32-.34,1.6,1.6,0,0,1,.28-.4.61.61,0,0,1,.56,0,1.9,1.9,0,0,1,1.15,1.18A7.43,7.43,0,0,1,164,9.22a2.31,2.31,0,0,1-.81.86c-.89.48-1.15-.38-1.79-.79A4.07,4.07,0,0,0,158.9,8.73Z"/><path class="cls-1" d="M152.46,2.18a6.72,6.72,0,0,0-3.11,2c.15.4.63.55,1.05.63a17,17,0,0,0,4.09.3c.48,0,1-.12,1.25-.55A1.56,1.56,0,0,1,156,4.1a.61.61,0,0,1,.56-.1,1.87,1.87,0,0,1,1.31,1,7.44,7.44,0,0,1-.21-3.11,2.38,2.38,0,0,1-.68,1c-.8.61-1.19-.19-1.89-.5A4.07,4.07,0,0,0,152.46,2.18Z"/></g></g></svg>