<svg xmlns="http://www.w3.org/2000/svg" viewBox="0 0 108.46 72.97"><defs><style>.cls-1{fill:#028975;}</style></defs><title>octopus-large</title><g id="Layer_2" data-name="Layer 2"><g id="Layer_1-2" data-name="Layer 1"><path class="cls-1" d="M52.56,57.85a12.24,12.24,0,0,0,3.92,9.5,20.54,20.54,0,0,0,9.3,4.86c5.64,1.45,12.24,1,16.41-3,1.37-1.33,2.44-3,4.07-4a6.25,6.25,0,0,1,6.61.16c.51.34,1.3.73,1.64.21a1,1,0,0,0,.08-.65c-.38-2.8-3.47-4.53-6.29-4.51s-5.46,1.29-8.08,2.32c-5,2-11,3-15.52.11-.68-.43-1.38-1.12-1.2-1.9A31.49,31.49,0,0,0,88,59.34c3.39-1.73,6.56-4.2,8.28-7.6,1.93-3.83,1.82-8.34,1.66-12.63-.09-2.55.06-5,0-7.55a6.14,6.14,0,0,1,4.7-.44,12.87,12.87,0,0,1,4.24,2.3,1.36,1.36,0,0,0,.89.39c.62-.07.79-.9.68-1.51a6.35,6.35,0,0,0-2.63-3.9A10.48,10.48,0,0,0,102,26.73c-.62.08-.41-1,.09-1.35a7.54,7.54,0,0,1,6.12-1.29,1.81,1.81,0,0,0-.65-2,4.4,4.4,0,0,0-2.12-.75,11.06,11.06,0,0,0-6.06.63,6.87,6.87,0,0,0-4,4.41,14,14,0,0,0-8.21,6.39,36.55,36.55,0,0,0-2.74,7.41,16.13,16.13,0,0,1-3.7,6.9c-1.89,1.84-4.86,2.8-7.25,1.69-.13-.72.94-.92,1.67-1a7.08,7.08,0,0,0,6-4.59,14.48,14.48,0,0,0,.53-7.84c-.41-2.62-1.15-5.19-1.43-7.83A5.64,5.64,0,0,1,80.67,24a4.14,4.14,0,0,1,4.41-1.62,8.17,8.17,0,0,1,4.14,2.69c.75.82,1.92,1.79,2.8,1.11-3.2-1.81-2.73-6.94-5.55-9.3-2.11-1.76-5.47-1.27-7.55.52s-3,4.56-3.47,7.28-.37,5.48-.8,8.19a10.7,10.7,0,0,1-1.94,5A5.19,5.19,0,0,1,68,40,3.48,3.48,0,0,1,65.07,36c.39-1.73,2.2-2.66,3.58-3.78,3-2.4,4.31-6.25,5.28-9.94a32.52,32.52,0,0,0,1.37-9.07,14.25,14.25,0,0,0-2.81-8.58A13.48,13.48,0,0,0,61.88,0,22.76,22.76,0,0,0,50.56,3.53a13.49,13.49,0,0,0-3.37,2.63,14.93,14.93,0,0,0-2.3,4c-2.5,5.78-4.23,12.32-2.43,18.35a23.47,23.47,0,0,1,1.15,4.15,4.09,4.09,0,0,1-1.47,3.84c-2.34-.88-3.2-3.57-2.87-6s1.51-4.78,1.89-7.25-.36-5.45-2.65-6.45c-.44,1.64.29,3.39,0,5.05-.68,3.8-5.83,4.79-8.07,7.93a7.81,7.81,0,0,0-1.31,3.59A11.42,11.42,0,0,0,38,45.56a6.75,6.75,0,0,1-7.89-3.67c-1.05-2.43-.54-5.2-.56-7.85a15.54,15.54,0,0,0-2.75-8.95,11.45,11.45,0,0,0-7.91-4.77A7.19,7.19,0,0,0,14,21.46,4.66,4.66,0,0,0,12,26c2.16-1.73,5.64-2.2,7.55-.21,1.71,1.78,1.5,4.6,1.17,7a11.72,11.72,0,0,0-10.51-5.38A11.73,11.73,0,0,0,.5,34.13c-.74,1.63-.81,4,.85,4.72a6.11,6.11,0,0,1,7.16-5,7.92,7.92,0,0,1,5.11,4.73,23.72,23.72,0,0,1,1.49,7C12,44.41,8.26,47.58,7.84,50.86A8.45,8.45,0,0,1,19,53.54c1.25,2,1.55,4.5,2.62,6.63a12.33,12.33,0,0,0,6.55,5.69,21.37,21.37,0,0,0,8.73,1.25,21.39,21.39,0,0,0,9.28-2.23C49,63.37,51.64,60.92,52.56,57.85Z"/></g></g></svg>