<svg xmlns="http://www.w3.org/2000/svg" viewBox="0 0 99.66 69.92"><defs><style>.cls-1{fill:#028975;}</style></defs><title>Octopus-small</title><g id="Layer_2" data-name="Layer 2"><g id="Layer_1-2" data-name="Layer 1"><path class="cls-1" d="M98.87,46.65a7,7,0,0,1-3.24-.46,10.94,10.94,0,0,1-2.83-1.81c-.9-.75-1.78-1.61-2.71-2.49q-.7-.66-1.47-1.32a17.93,17.93,0,0,0-1.7-1.29c-.33-.23-.58-.37-.86-.54l-.2-.12-.1-.06-.05,0h0l-.1-.06-.51-.23a7.21,7.21,0,0,0-1-.43A8.3,8.3,0,0,0,83,37.46a13.33,13.33,0,0,0-4.42-.36c-2.87.23-5.32,1-7.6,1.41l-.8.12-.94.1-.78,0c-.28,0-.55,0-.82,0a10.3,10.3,0,0,1-3.08-.52,8.1,8.1,0,0,1-2.63-1.52,10.32,10.32,0,0,1-1.4-1.47l.28.08,1,.15a12.42,12.42,0,0,0,3.83-.31A16.84,16.84,0,0,0,69.11,34a16.59,16.59,0,0,0,1.65-.9c.27-.18.54-.35.81-.56l.21-.16.1-.07.05,0,.08-.07.31-.27.31-.27L73,31.3c.24-.23.47-.46.67-.68.42-.45.81-.92,1.18-1.39a56.52,56.52,0,0,0,3.6-5.72c.27-.45.54-.89.82-1.31s.55-.83.88-1.29A18.27,18.27,0,0,1,82,18.64,5.61,5.61,0,0,1,84,17.25a6,6,0,0,1,1.28-.32c.29-.05.51-.07.73-.09l.71-.05a6.37,6.37,0,0,1,2.67.45A5.22,5.22,0,0,1,91.57,19c.34.49,1.77-.05,1.44-.83a6.89,6.89,0,0,0-2.44-2.91A8.25,8.25,0,0,0,87,13.94c-.31,0-.61-.07-.93-.09l-.91,0a9.08,9.08,0,0,0-2,.22,8.75,8.75,0,0,0-3.61,1.82A18.92,18.92,0,0,0,77,18.5c-.34.4-.73.9-1.07,1.36s-.67.94-1,1.42c-1.26,1.91-2.29,3.77-3.49,5.33-.29.39-.6.76-.92,1.12l-.47.5-.23.24-.3.27-.3.28-.21.17a5.64,5.64,0,0,1-.53.4c-.37.26-.78.5-1.19.73A12.39,12.39,0,0,1,62,31.93a3.51,3.51,0,0,1-3.65-2.45,21.2,21.2,0,0,1-1-2.92l-.21-.75a9.33,9.33,0,0,1,.13-2c.42-2.07,2.16-4.13,3.37-5.78,2.26-3.08,3.51-6.33,3-10.27C62.79,1.47,57.64-1,51.83.35,45.51,1.81,41.62,6.73,42.67,13.2c.65,4.05,3.07,7.43,3.39,11.63A9.38,9.38,0,0,1,45.61,29a9.07,9.07,0,0,1-1.11,1.2c-.06.05-.13.14-.18.16l-.13.08-.27.18a7.74,7.74,0,0,1-.7.37,4.6,4.6,0,0,1-.76.29,7.06,7.06,0,0,1-.82.23,13.05,13.05,0,0,1-3.56.23,18.43,18.43,0,0,1-3.68-.58c-1.27-.33-2.56-.73-3.91-1.13a30.54,30.54,0,0,0-8.72-1.57,17.39,17.39,0,0,0-4.63.62,12.08,12.08,0,0,0-4.32,2.28,17.68,17.68,0,0,0-3.13,3.36c-.22.3-.42.6-.63.91l-.56.88L8.22,37,8,37.31c-.17.23-.37.47-.56.69A5.42,5.42,0,0,1,4.6,39.79a4.34,4.34,0,0,1-1.69.05A5.65,5.65,0,0,1,2,39.65c-.29-.1-.59-.19-.88-.32C.42,39-.51,40.2.34,40.79c.31.21.66.38,1,.57a8.23,8.23,0,0,0,1.11.43,6.48,6.48,0,0,0,2.46.29,6.86,6.86,0,0,0,2.44-.66,9.3,9.3,0,0,0,2-1.36c.3-.27.58-.53.86-.83l.41-.46.34-.4.65-.82.63-.73A16,16,0,0,1,15,34.33,8.94,8.94,0,0,1,18.1,33a15.42,15.42,0,0,1,3.6-.31,30.92,30.92,0,0,1,7.58,1.53c1.32.38,2.68.78,4.11,1.12a21.49,21.49,0,0,0,3.92.53,28.7,28.7,0,0,1-2.9,1.11,21.14,21.14,0,0,1-5.69,1c-.49,0-1,0-1.47,0h-.87c-.34,0-.71,0-1,.09a15.57,15.57,0,0,0-3.57.9,14.27,14.27,0,0,0-6,4.18A13.36,13.36,0,0,0,14,46.26c-.45,1.07-.77,2.1-1.12,3a9.58,9.58,0,0,1-1.29,2.51A6.57,6.57,0,0,1,9.42,53.6c-.53.29-.15,1.76.62,1.54a8.07,8.07,0,0,0,3.19-1.74,11.35,11.35,0,0,0,2.19-2.87c.56-1,1-2,1.52-2.8a11.11,11.11,0,0,1,1.61-2.21,12,12,0,0,1,4.64-2.68,13.4,13.4,0,0,1,2.65-.58c.22,0,.38,0,.57,0h.74c.57,0,1.15,0,1.73,0a22,22,0,0,0,6.86-1.4,27.27,27.27,0,0,0,4.56-2.26l-.31.28c-.24.22-.49.43-.74.63l-.81.65A23,23,0,0,0,32.55,47a18.37,18.37,0,0,0-1.69,4.33l-.13.63-.09.57c-.06.37-.11.74-.15,1.1-.08.73-.13,1.44-.18,2.14a45.94,45.94,0,0,1-.93,8,7.31,7.31,0,0,1-1.54,3.16,4.21,4.21,0,0,1-1.34,1,5.28,5.28,0,0,1-1.73.4c-.77,0-1.09,1.53,0,1.66a6.73,6.73,0,0,0,2.39-.17,6.19,6.19,0,0,0,2.26-1.14A7.22,7.22,0,0,0,31,66.72a11.41,11.41,0,0,0,1.06-2.09A39,39,0,0,0,34,56.17c.11-.68.21-1.35.32-2,.06-.32.12-.64.19-1l.1-.45.11-.38A15.4,15.4,0,0,1,36.17,49a21.17,21.17,0,0,1,5-5.62l.81-.66L42.8,42c.55-.49,1.09-1,1.6-1.53a32.91,32.91,0,0,0,2.89-3.35l.13-.18a16.28,16.28,0,0,0,.26,1.91,26.69,26.69,0,0,0,2.82,7.45c.3.57.6,1.12.91,1.67l.45.81c.11.19.32.56.4.75a12.07,12.07,0,0,1,1.07,2.92,10.1,10.1,0,0,1,.19,3.06A32.8,32.8,0,0,1,52.88,59a12.83,12.83,0,0,0-.25,4.26c0,.19.06.38.11.58l.07.29,0,.14v0l0,.06,0,.11.16.43c.07.17.18.4.27.59a7.25,7.25,0,0,0,.64,1,8,8,0,0,0,.79.85,8.1,8.1,0,0,0,3.85,2,9.56,9.56,0,0,0,4.09,0c.87-.23.48-1.69-.23-1.64a7.09,7.09,0,0,1-5.65-2.29,5.12,5.12,0,0,1-.39-.56,3.68,3.68,0,0,1-.25-.57c0-.1-.06-.15-.1-.26l-.1-.46,0-.11v-.08c0-.1,0,.11,0,.09h0v-.16a1.83,1.83,0,0,1,0-.33,10.21,10.21,0,0,1,.53-3.07,32.65,32.65,0,0,0,1-3.79,13.45,13.45,0,0,0,0-4.34,15.29,15.29,0,0,0-1.35-4.08c-.17-.37-.27-.54-.46-.89l-.45-.81-.86-1.6A27.32,27.32,0,0,1,51.67,38a14.18,14.18,0,0,1-.3-1.56c0-.21,0-.49-.08-.75l.1.17L52,37a.83.83,0,0,0,.08.12c.35.72.72,1.44,1.13,2.12s.63,1,1,1.55c.17.26.35.5.52.75l.26.37.07.1,0,0,.08.1.13.17.54.68c.16.22.42.48.63.72.44.51.87.91,1.31,1.35.88.84,1.79,1.63,2.67,2.37a37.07,37.07,0,0,1,4.76,4.38A13.23,13.23,0,0,1,68,57.07c.28,1,.5,2.21.93,3.45,0,.15.11.31.17.46l.09.23.13.3.19.39c.07.12.13.24.24.42a7.22,7.22,0,0,0,3,2.91,9.72,9.72,0,0,0,1.82.7,23.31,23.31,0,0,0,3.54.62c.73.08,1.09-1.38.36-1.62a26.69,26.69,0,0,1-3.1-1.16,6,6,0,0,1-2.23-1.7A4.81,4.81,0,0,1,72.51,61a3.6,3.6,0,0,1-.14-.35l-.15-.41c0-.07,0,.08,0,.06h0v-.07l0-.08,0-.17-.08-.36c-.21-1-.3-2.06-.51-3.29a15.51,15.51,0,0,0-3.13-7.08,32.33,32.33,0,0,0-5.24-5.07c-.89-.73-1.73-1.44-2.54-2.16-.38-.36-.8-.73-1.12-1.08-.18-.18-.34-.32-.53-.54l-.57-.65-.14-.17h0l-.06-.08L58,39.14c-.17-.21-.35-.42-.51-.64-.32-.43-.65-.86-1-1.31-.27-.67-.54-1.34-.82-2-.15-.37-.34-.81-.51-1.18l-.07-.15.51.15.13,0,.09.22.19.44.23.47a9.42,9.42,0,0,0,.45.9,14.52,14.52,0,0,0,2.58,3.5,11.73,11.73,0,0,0,3.78,2.49,13.68,13.68,0,0,0,4.35.93c.36,0,.72,0,1.08,0L69,43h.58l1-.09,1.08-.15c2.71-.45,5.1-1.25,7.29-1.5a10.2,10.2,0,0,1,3.13.08,7,7,0,0,1,.76.18,7.16,7.16,0,0,1,.74.25l.37.14h0l-.06,0h0l0,0,.11.05.21.11a7.93,7.93,0,0,1,.78.4c.23.14.44.24.69.41l.73.48c.49.35,1,.7,1.48,1.08,1,.75,2,1.55,3.18,2.27A12.64,12.64,0,0,0,95,48.4a8.55,8.55,0,0,0,4.21-.12C100,48,99.62,46.59,98.87,46.65Z"/></g></g></svg>