<?xml version="1.0" encoding="UTF-8" standalone="no"?>
<!-- Created with Inkscape (http://www.inkscape.org/) -->

<svg
   version="1.1"
   id="svg2"
   xml:space="preserve"
   width="1257.4645"
   height="416.34305"
   viewBox="0 0 1257.4645 416.34305"
   xmlns="http://www.w3.org/2000/svg"
   xmlns:svg="http://www.w3.org/2000/svg"><defs
     id="defs6"><clipPath
       clipPathUnits="userSpaceOnUse"
       id="clipPath16"><path
         d="M 0,612 H 1008 V 0 H 0 Z"
         id="path14" /></clipPath></defs><g
     id="g8"
     transform="matrix(1.3333333,0,0,-1.3333333,-38.585066,638.50278)"><g
       id="g10"><g
         id="g12"
         clip-path="url(#clipPath16)"><g
           id="g18"
           transform="translate(258.3873,230.4668)"><path
             d="m 0,0 c -2.4,0 -4.353,-1.952 -4.353,-4.353 0,-2.4 1.953,-4.352 4.353,-4.352 12.803,0 23.218,-10.416 23.218,-23.218 0,-12.803 -10.415,-23.219 -23.218,-23.219 -12.803,0 -23.219,10.416 -23.219,23.219 v 88.394 c 0,3.054 -1.485,5.97 -3.972,7.8 -1.788,1.313 -3.984,2.007 -6.35,2.007 -1.303,0 -2.633,-0.209 -3.954,-0.622 -0.839,-0.262 -1.82,-0.602 -2.956,-0.997 -6.237,-2.166 -16.57,-5.753 -28.754,-5.753 -12.184,0 -22.517,3.587 -28.691,5.732 -1.2,0.416 -2.181,0.757 -3.019,1.018 -1.322,0.412 -2.653,0.622 -3.956,0.622 -2.366,0 -4.562,-0.694 -6.347,-2.007 -2.488,-1.83 -3.973,-4.746 -3.973,-7.8 v -88.394 c 0,-12.803 -10.415,-23.219 -23.218,-23.219 -12.803,0 -23.219,10.416 -23.219,23.219 0,12.802 10.416,23.218 23.219,23.218 2.399,0 4.352,1.952 4.352,4.352 0,2.401 -1.953,4.353 -4.352,4.353 -17.604,0 -31.924,-14.32 -31.924,-31.923 0,-17.602 14.32,-31.924 31.924,-31.924 17.602,0 31.923,14.322 31.923,31.924 v 86.242 4.035 l 3.824,-1.284 c 0.506,-0.169 1.067,-0.364 1.683,-0.578 l 0.226,-0.078 c 6.259,-2.173 17.899,-6.213 31.548,-6.213 13.652,0 25.293,4.041 31.546,6.213 l 0.103,0.035 c 0.666,0.233 1.272,0.443 1.812,0.623 l 3.82,1.276 v -4.029 -86.242 c 0,-17.602 14.321,-31.924 31.924,-31.924 17.603,0 31.923,14.322 31.923,31.924 C 31.923,-14.32 17.603,0 0,0"
             style="fill:#1d2055;fill-opacity:1;fill-rule:nonzero;stroke:none"
             id="path20" /></g><g
           id="g22"
           transform="translate(92.7858,254.7871)"><path
             d="m 0,0 v 17.367 c 0,23.453 22.782,29.639 23.752,29.891 1.977,0.489 3.336,2.226 3.336,4.232 0,2.005 -1.359,3.742 -3.305,4.224 -0.056,0.014 -5.967,1.508 -11.97,6.036 C 3.975,67.657 0,75.686 0,85.613 v 17.367 c 0,17.602 -14.32,31.923 -31.924,31.923 -17.602,0 -31.923,-14.321 -31.923,-31.923 0,-17.603 14.321,-31.924 31.923,-31.924 2.401,0 4.353,1.953 4.353,4.353 0,2.4 -1.952,4.352 -4.353,4.352 -12.803,0 -23.218,10.416 -23.218,23.219 0,12.802 10.415,23.218 23.218,23.218 12.804,0 23.22,-10.416 23.22,-23.218 V 85.613 c 0,-16.519 8.995,-26.388 16.542,-31.759 L 11.159,51.49 7.838,49.126 C 0.291,43.755 -8.704,33.886 -8.704,17.367 V 0 c 0,-12.803 -10.416,-23.218 -23.22,-23.218 -12.803,0 -23.218,10.415 -23.218,23.218 0,12.803 10.415,23.219 23.218,23.219 2.401,0 4.353,1.952 4.353,4.352 0,2.4 -1.952,4.353 -4.353,4.353 -17.602,0 -31.923,-14.321 -31.923,-31.924 0,-17.603 14.321,-31.923 31.923,-31.923 C -14.32,-31.923 0,-17.603 0,0"
             style="fill:#1d2055;fill-opacity:1;fill-rule:nonzero;stroke:none"
             id="path24" /></g><g
           id="g26"
           transform="translate(317.3551,287.5605)"><path
             d="m 0,0 c -2.399,0 -4.353,-1.952 -4.353,-4.353 0,-2.399 1.954,-4.352 4.353,-4.352 12.803,0 23.219,-10.415 23.219,-23.218 0,-12.803 -10.416,-23.219 -23.219,-23.219 -12.803,0 -23.219,10.416 -23.219,23.219 v 17.366 c 0,16.519 -8.995,26.389 -16.542,31.759 l -3.322,2.364 3.322,2.365 c 7.547,5.37 16.542,15.24 16.542,31.758 v 17.368 c 0,12.802 10.416,23.218 23.219,23.218 12.803,0 23.219,-10.416 23.219,-23.218 C 23.219,58.253 12.803,47.838 0,47.838 c -2.399,0 -4.353,-1.953 -4.353,-4.353 0,-2.4 1.954,-4.352 4.353,-4.352 17.603,0 31.924,14.321 31.924,31.924 0,17.602 -14.321,31.922 -31.924,31.922 -17.603,0 -31.924,-14.32 -31.924,-31.922 V 53.689 c 0,-23.453 -22.781,-29.638 -23.751,-29.89 -1.988,-0.493 -3.354,-2.229 -3.354,-4.228 0,-2.005 1.351,-3.74 3.286,-4.219 1.002,-0.26 23.819,-6.446 23.819,-29.909 v -17.366 c 0,-17.602 14.321,-31.924 31.924,-31.924 17.603,0 31.924,14.322 31.924,31.924 C 31.924,-14.32 17.603,0 0,0"
             style="fill:#1d2055;fill-opacity:1;fill-rule:nonzero;stroke:none"
             id="path28" /></g><g
           id="g30"
           transform="translate(231.0905,318.5)"><path
             d="m 0,0 c -9.084,0 -16.475,7.39 -16.475,16.475 0,9.084 7.391,16.474 16.475,16.474 9.084,0 16.475,-7.39 16.475,-16.474 C 16.475,7.39 9.084,0 0,0 m -84.005,0 c -9.085,0 -16.474,7.39 -16.474,16.475 0,9.084 7.389,16.474 16.474,16.474 9.084,0 16.475,-7.39 16.475,-16.474 C -67.53,7.39 -74.921,0 -84.005,0 M 0,41.654 c -10.727,0 -20.291,-6.824 -23.802,-16.981 l -0.918,-2.657 -2.684,0.834 c -4.461,1.385 -9.366,2.088 -14.577,2.088 -5.226,0 -10.142,-0.707 -14.613,-2.1 l -2.688,-0.837 -0.918,2.662 c -3.507,10.163 -13.073,16.991 -23.805,16.991 -13.885,0 -25.18,-11.296 -25.18,-25.179 0,-13.885 11.295,-25.18 25.18,-25.18 11.714,0 22.052,8.302 24.581,19.74 l 0.299,1.351 1.236,0.618 c 2.412,1.206 7.686,3.229 15.908,3.229 8.175,0 13.44,-2.005 15.85,-3.201 l 1.246,-0.618 0.299,-1.358 C -22.064,-0.394 -11.725,-8.705 0,-8.705 c 13.884,0 25.18,11.295 25.18,25.18 0,13.883 -11.296,25.179 -25.18,25.179"
             style="fill:#1d2055;fill-opacity:1;fill-rule:nonzero;stroke:none"
             id="path32" /></g><g
           id="g34"
           transform="translate(108.2272,357.7451)"><path
             d="m 0,0 c 0.678,-1.629 2.256,-2.683 4.022,-2.683 0.572,0 1.133,0.113 1.668,0.335 2.215,0.921 3.269,3.474 2.347,5.69 -3.991,9.599 -6.015,19.776 -6.015,30.247 0,43.471 35.368,78.838 78.838,78.838 43.472,0 78.838,-35.367 78.838,-78.838 0,-10.473 -2.023,-20.65 -6.013,-30.247 -0.448,-1.073 -0.449,-2.257 -0.005,-3.331 0.443,-1.075 1.278,-1.912 2.352,-2.359 0.535,-0.222 1.096,-0.335 1.668,-0.335 1.766,0 3.344,1.053 4.022,2.683 4.433,10.661 6.681,21.962 6.681,33.589 0,48.271 -39.271,87.543 -87.543,87.543 C 32.59,121.132 -6.682,81.86 -6.682,33.589 -6.682,21.964 -4.434,10.663 0,0"
             style="fill:#1d2055;fill-opacity:1;fill-rule:nonzero;stroke:none"
             id="path36" /></g><g
           id="g38"
           transform="translate(187.3483,377.2754)"><path
             d="m 0,0 -0.064,31.811 c 0.04,0.493 0.066,0.989 0.066,1.492 0,0.531 -0.027,1.055 -0.073,1.574 l -0.066,32.618 c 0,6.79 -5.505,12.294 -12.295,12.294 -5.453,0 -10.069,-3.553 -11.679,-8.467 -0.016,0.002 -0.033,0.002 -0.048,0.004 -0.342,-1.126 -0.53,-2.318 -0.53,-3.555 0,-6.167 4.587,-11.271 10.527,-12.113 0.369,2.198 1.382,4.31 3.057,6.02 0.701,0.716 1.848,0.728 2.564,0.026 0.716,-0.701 0.728,-1.849 0.027,-2.564 -1.368,-1.397 -2.085,-3.189 -2.169,-5.004 0.034,-0.137 0.056,-0.279 0.056,-0.427 0,-0.14 -0.019,-0.275 -0.049,-0.406 0.113,-1.826 0.865,-3.619 2.273,-4.998 0.715,-0.701 0.726,-1.849 0.026,-2.564 -0.356,-0.363 -0.825,-0.545 -1.296,-0.545 -0.458,0 -0.916,0.173 -1.269,0.518 -1.793,1.757 -2.862,3.971 -3.229,6.278 -7.942,0.865 -14.145,7.611 -14.145,15.779 0,1.238 0.147,2.442 0.416,3.599 -6.814,-0.622 -12.526,-5.047 -14.991,-11.139 -7.568,-2.083 -13.134,-8.992 -13.175,-17.212 -5.049,-1.53 -8.726,-6.216 -8.726,-11.765 0,-3.07 1.133,-5.871 2.993,-8.025 -0.015,-0.024 -0.028,-0.049 -0.044,-0.073 1.971,-1.766 4.646,-2.606 7.313,-2.606 h 0.027 c 7.428,0.016 10.812,5.225 10.812,10.057 0,1.002 0.811,1.814 1.813,1.814 3.301,0 7.139,3.108 7.139,7.116 -0.012,2.769 -1.268,4.94 -3.481,6.096 -0.819,-1.675 -2.13,-3.129 -3.869,-4.117 -0.283,-0.161 -0.591,-0.238 -0.895,-0.238 -0.63,0 -1.244,0.33 -1.579,0.918 -0.494,0.871 -0.189,1.978 0.681,2.473 2.863,1.627 3.869,5.281 2.241,8.144 -0.494,0.871 -0.189,1.978 0.682,2.473 0.869,0.495 1.978,0.19 2.473,-0.681 0.969,-1.707 1.354,-3.588 1.224,-5.413 3.848,-1.654 6.131,-5.205 6.151,-9.648 0,-5.15 -4.066,-9.728 -9.053,-10.601 -0.742,-6.2 -5.633,-12.002 -14.331,-12.02 h -0.034 c -3.164,0 -6.442,0.944 -9.032,2.921 -0.793,-2.026 -1.231,-4.231 -1.231,-6.539 0,-9.913 8.036,-17.95 17.949,-17.95 0.126,0 0.249,0.012 0.374,0.015 -0.552,0.553 -1.078,1.138 -1.549,1.78 -2.45,3.337 -3.454,7.429 -2.825,11.521 0.152,0.989 1.082,1.665 2.067,1.517 0.991,-0.152 1.67,-1.078 1.517,-2.068 -0.48,-3.133 0.288,-6.267 2.164,-8.823 0.953,-1.298 2.135,-2.365 3.476,-3.167 0.009,0.003 0.017,0.005 0.026,0.008 2.386,-1.173 5.068,-1.833 7.905,-1.833 2.143,0 4.197,0.379 6.102,1.069 -0.026,0.063 -0.055,0.125 -0.074,0.191 -0.436,1.467 -0.656,2.991 -0.656,4.53 0,1.611 0.243,3.165 0.69,4.63 -4.02,2.972 -6.468,7.738 -6.468,12.778 0,8.169 6.203,14.915 14.147,15.78 0.029,2.886 0.976,5.673 2.775,7.995 0.612,0.792 1.75,0.936 2.544,0.324 0.792,-0.614 0.937,-1.753 0.323,-2.545 -1.585,-2.047 -2.279,-4.59 -1.952,-7.159 0.326,-2.569 1.634,-4.857 3.682,-6.443 0.792,-0.613 0.937,-1.752 0.323,-2.544 -0.356,-0.462 -0.893,-0.703 -1.435,-0.703 -0.387,0 -0.779,0.124 -1.109,0.379 -2.336,1.809 -3.957,4.288 -4.701,7.097 -6.155,-0.642 -10.97,-5.859 -10.97,-12.181 0,-3.676 1.6,-7.051 4.35,-9.359 2.764,4.679 7.859,7.827 13.677,7.827 1.002,0 1.813,-0.811 1.813,-1.813 0,-1.002 -0.811,-1.814 -1.813,-1.814 -6.754,0 -12.249,-5.494 -12.249,-12.249 0,-1.06 0.142,-2.107 0.409,-3.123 0.021,0.013 0.044,0.024 0.064,0.037 1.323,-5.362 6.153,-9.344 11.923,-9.344 6.472,0 11.764,5.003 12.247,11.351 L 0.002,-1 0,-0.077 C 0,-0.065 0.002,-0.053 0.002,-0.04 0.002,-0.027 0,-0.014 0,0"
             style="fill:#3b53a4;fill-opacity:1;fill-rule:nonzero;stroke:none"
             id="path40" /></g><g
           id="g42"
           transform="translate(237.1637,419.2158)"><path
             d="m 0,0 c -0.592,-0.306 -1.304,-0.262 -1.854,0.114 -0.55,0.375 -0.851,1.023 -0.782,1.686 0.19,1.812 -0.339,3.59 -1.486,5.006 -1.102,1.358 -2.65,2.22 -4.375,2.455 -0.676,-1.314 -1.699,-2.42 -3,-3.195 -0.291,-0.174 -0.611,-0.256 -0.928,-0.256 -0.617,0 -1.22,0.315 -1.558,0.885 -0.513,0.86 -0.232,1.973 0.629,2.486 1,0.596 1.708,1.547 1.993,2.675 0.286,1.128 0.115,2.3 -0.482,3.3 -0.512,0.861 -0.231,1.974 0.629,2.487 0.86,0.514 1.974,0.232 2.486,-0.629 0.774,-1.297 1.148,-2.752 1.121,-4.224 2.481,-0.435 4.7,-1.724 6.301,-3.7 1.145,-1.411 1.887,-3.057 2.186,-4.799 2.772,0.912 5.661,1.063 8.417,0.567 -1.432,6.498 -6.37,11.679 -12.742,13.433 -2.662,6.578 -9.108,11.221 -16.641,11.221 -0.643,0 -1.275,-0.042 -1.9,-0.109 -5.277,-1.364 -9.192,-6.151 -9.192,-11.847 0,-6.754 5.495,-12.249 12.249,-12.249 0.822,0 1.54,-0.552 1.752,-1.345 0.213,-0.794 -0.135,-1.631 -0.846,-2.04 -2.088,-1.202 -3.582,-3.145 -4.208,-5.47 -0.627,-2.326 -0.31,-4.756 0.892,-6.843 2.27,-3.945 7.089,-5.514 11.194,-3.851 -0.796,1.997 -0.998,4.25 -0.416,6.486 0.251,0.969 1.247,1.548 2.212,1.298 0.969,-0.252 1.551,-1.243 1.298,-2.212 -0.947,-3.641 1.243,-7.374 4.884,-8.321 0.97,-0.253 1.551,-1.243 1.298,-2.213 -0.212,-0.816 -0.947,-1.357 -1.753,-1.357 -0.151,0 -0.306,0.019 -0.458,0.06 -2.062,0.536 -3.816,1.658 -5.14,3.137 -1.699,-0.787 -3.501,-1.17 -5.283,-1.17 -4.379,0 -8.643,2.273 -10.98,6.333 -1.685,2.927 -2.129,6.335 -1.251,9.596 0.49,1.818 1.358,3.47 2.538,4.868 -6.689,1.868 -11.609,8.017 -11.609,15.293 0,7.029 4.594,13.002 10.935,15.085 -2.225,3.148 -5.886,5.208 -10.034,5.208 -6.79,0 -12.295,-5.505 -12.295,-12.295 L -46.261,-4.84 c 3.11,3.018 7.345,4.881 12.009,4.881 1.002,0 1.814,-0.812 1.814,-1.814 0,-1.001 -0.812,-1.813 -1.814,-1.813 -5.198,0 -9.723,-2.927 -12.02,-7.217 l -0.064,-31.137 c 0,-0.014 -0.002,-0.027 -0.002,-0.04 0,-0.013 0.002,-0.025 0.002,-0.038 l -0.002,-0.922 0.048,0.015 c 0.483,-6.347 5.775,-11.35 12.247,-11.35 4.421,0 8.282,2.341 10.445,5.845 -5.992,4.495 -8.139,12.774 -4.703,19.727 0.07,0.14 0.158,0.262 0.255,0.374 -2.389,1.32 -4.319,3.325 -5.545,5.827 -0.441,0.899 -0.069,1.985 0.83,2.426 0.901,0.441 1.986,0.069 2.427,-0.83 1.152,-2.352 3.152,-4.114 5.63,-4.962 2.478,-0.848 5.138,-0.679 7.488,0.472 0.901,0.442 1.987,0.07 2.428,-0.83 0.44,-0.899 0.068,-1.985 -0.831,-2.426 -1.867,-0.916 -3.878,-1.378 -5.901,-1.378 -1.118,0 -2.241,0.144 -3.344,0.429 -0.013,-0.239 -0.073,-0.48 -0.185,-0.709 -2.511,-5.079 -1.15,-11.068 2.925,-14.635 10e-4,0.005 0.003,0.009 0.004,0.014 2.75,-1.713 5.994,-2.705 9.472,-2.705 2.823,0 5.491,0.655 7.867,1.816 3.573,2.514 5.635,6.905 4.928,11.508 -0.152,0.991 0.528,1.916 1.518,2.068 0.99,0.15 1.916,-0.527 2.067,-1.518 0.739,-4.812 -0.835,-9.454 -3.886,-12.799 0.22,-0.007 0.438,-0.024 0.661,-0.024 9.913,0 17.949,8.036 17.949,17.949 0,3.67 -1.103,7.081 -2.994,9.925 1.861,2.154 2.994,4.955 2.994,8.025 0,5.416 -3.508,10.003 -8.372,11.642 C 6.836,1.907 3.236,1.672 0,0"
             style="fill:#3b53a4;fill-opacity:1;fill-rule:nonzero;stroke:none"
             id="path44" /></g><g
           id="g46"
           transform="translate(433.0358,260.1895)"><path
             d="m 0,0 c 35.441,0 55.579,20.137 55.579,63.365 0,42.959 -20.138,61.754 -55.579,61.754 H -13.693 V 0 Z M -44.839,150.357 H 2.148 c 53.7,0 85.382,-28.997 85.382,-86.992 0,-58.263 -31.682,-88.604 -83.771,-88.604 h -48.598 z"
             style="fill:#1d2055;fill-opacity:1;fill-rule:nonzero;stroke:none"
             id="path48" /></g><g
           id="g50"
           transform="translate(558.3424,410.5469)"><path
             d="M 0,0 H 105.787 V -26.313 H 31.146 V -71.151 H 94.242 V -97.464 H 31.146 v -51.82 h 77.327 v -26.313 H 0 Z"
             style="fill:#1d2055;fill-opacity:1;fill-rule:nonzero;stroke:none"
             id="path52" /></g><g
           id="g54"
           transform="translate(703.5709,410.5469)"><path
             d="M 0,0 H 105.787 V -26.313 H 31.146 V -71.151 H 94.241 V -97.464 H 31.146 v -51.82 h 77.326 v -26.313 H 0 Z"
             style="fill:#1d2055;fill-opacity:1;fill-rule:nonzero;stroke:none"
             id="path56" /></g><g
           id="g58"
           transform="translate(902.7662,324.3594)"><path
             d="m 0,0 c 26.044,0 38.663,10.472 38.663,31.951 0,22.017 -13.693,29.266 -39.737,29.266 H -22.822 V 0 Z m -53.968,86.188 h 55.31 c 38.932,0 67.929,-13.425 67.929,-54.237 0,-38.931 -28.997,-56.921 -66.855,-56.921 h -25.238 v -64.439 h -31.146 z"
             style="fill:#1d2055;fill-opacity:1;fill-rule:nonzero;stroke:none"
             id="path60" /></g></g></g></g></svg>
