<?xml version="1.0" encoding="UTF-8" standalone="no"?>
<!-- Created with Inkscape (http://www.inkscape.org/) -->

<svg
   version="1.1"
   id="svg2"
   xml:space="preserve"
   width="724.12213"
   height="705.85022"
   viewBox="0 0 724.12213 705.85022"
   sodipodi:docname="logo.ai.svg"
   inkscape:version="1.1.1 (3bf5ae0d25, 2021-09-20, custom)"
   xmlns:inkscape="http://www.inkscape.org/namespaces/inkscape"
   xmlns:sodipodi="http://sodipodi.sourceforge.net/DTD/sodipodi-0.dtd"
   xmlns="http://www.w3.org/2000/svg"
   xmlns:svg="http://www.w3.org/2000/svg"><defs
     id="defs6"><clipPath
       clipPathUnits="userSpaceOnUse"
       id="clipPath16"><path
         d="M 0,792 H 612 V 0 H 0 Z"
         id="path14" /></clipPath></defs><sodipodi:namedview
     id="namedview4"
     pagecolor="#ffffff"
     bordercolor="#666666"
     borderopacity="1.0"
     inkscape:pageshadow="2"
     inkscape:pageopacity="0.0"
     inkscape:pagecheckerboard="0"
     showgrid="false"
     inkscape:zoom="0.1015625"
     inkscape:cx="256"
     inkscape:cy="-610.46154"
     inkscape:window-width="628"
     inkscape:window-height="1038"
     inkscape:window-x="2564"
     inkscape:window-y="8"
     inkscape:window-maximized="1"
     inkscape:current-layer="g8" /><g
     id="g8"
     inkscape:groupmode="layer"
     inkscape:label="Deep Logo Final - Color Variants"
     transform="matrix(1.3333333,0,0,-1.3333333,-46.605599,880.92464)"><g
       id="g10"><g
         id="g12"
         clip-path="url(#clipPath16)"><g
           id="g18"
           transform="translate(423.9521,239.5488)"><path
             d="m 0,0 c -4.069,0 -7.38,-3.311 -7.38,-7.379 0,-4.069 3.311,-7.379 7.38,-7.379 21.705,0 39.363,-17.658 39.363,-39.363 0,-21.705 -17.658,-39.363 -39.363,-39.363 -21.705,0 -39.364,17.658 -39.364,39.363 V 95.738 c 0,5.18 -2.518,10.123 -6.736,13.224 -3.029,2.226 -6.752,3.404 -10.764,3.404 -2.208,0 -4.464,-0.355 -6.704,-1.055 -1.422,-0.445 -3.085,-1.022 -5.012,-1.691 -10.574,-3.671 -28.093,-9.753 -48.748,-9.753 -20.655,0 -38.174,6.082 -48.642,9.717 -2.033,0.705 -3.697,1.283 -5.118,1.727 -2.241,0.7 -4.498,1.054 -6.707,1.054 -4.012,0 -7.732,-1.177 -10.76,-3.402 -4.218,-3.102 -6.736,-8.045 -6.736,-13.225 V -54.121 c 0,-21.705 -17.658,-39.363 -39.363,-39.363 -21.706,0 -39.365,17.658 -39.365,39.363 0,21.705 17.659,39.363 39.365,39.363 4.069,0 7.379,3.31 7.379,7.379 0,4.068 -3.31,7.379 -7.379,7.379 -29.844,0 -54.123,-24.278 -54.123,-54.121 0,-29.843 24.279,-54.122 54.123,-54.122 29.843,0 54.121,24.279 54.121,54.122 v 146.213 6.839 l 6.484,-2.175 c 0.857,-0.287 1.81,-0.618 2.854,-0.981 l 0.382,-0.132 c 10.611,-3.684 30.345,-10.534 53.485,-10.534 23.145,0 42.881,6.852 53.482,10.533 l 0.175,0.06 c 1.13,0.394 2.155,0.75 3.072,1.056 l 6.477,2.162 V 92.092 -54.121 c 0,-29.843 24.279,-54.122 54.122,-54.122 29.842,0 54.121,24.279 54.121,54.122 C 54.121,-24.278 29.842,0 0,0"
             style="fill:#1d2055;fill-opacity:1;fill-rule:nonzero;stroke:none"
             id="path20" /></g><g
           id="g22"
           transform="translate(143.1982,280.7812)"><path
             d="m 0,0 v 29.442 c 0,39.763 38.623,50.248 40.267,50.676 3.352,0.831 5.656,3.776 5.656,7.175 0,3.399 -2.304,6.345 -5.603,7.162 -0.095,0.024 -10.115,2.557 -20.295,10.232 C 6.737,114.703 0,128.315 0,145.145 v 29.442 c 0,29.843 -24.279,54.122 -54.123,54.122 -29.842,0 -54.121,-24.279 -54.121,-54.122 0,-29.842 24.279,-54.122 54.121,-54.122 4.069,0 7.379,3.31 7.379,7.379 0,4.069 -3.31,7.38 -7.379,7.38 -21.705,0 -39.363,17.658 -39.363,39.363 0,21.705 17.658,39.364 39.363,39.364 21.706,0 39.365,-17.659 39.365,-39.364 v -29.442 c 0,-28.006 15.251,-44.739 28.045,-53.844 l 5.631,-4.008 -5.631,-4.008 C 0.493,74.18 -14.758,57.447 -14.758,29.442 V 0 c 0,-21.705 -17.659,-39.363 -39.365,-39.363 -21.705,0 -39.363,17.658 -39.363,39.363 0,21.705 17.658,39.363 39.363,39.363 4.069,0 7.379,3.31 7.379,7.379 0,4.069 -3.31,7.379 -7.379,7.379 -29.842,0 -54.121,-24.278 -54.121,-54.121 0,-29.843 24.279,-54.122 54.121,-54.122 C -24.279,-54.122 0,-29.843 0,0"
             style="fill:#1d2055;fill-opacity:1;fill-rule:nonzero;stroke:none"
             id="path24" /></g><g
           id="g26"
           transform="translate(523.9248,336.3437)"><path
             d="m 0,0 c -4.069,0 -7.38,-3.311 -7.38,-7.379 0,-4.069 3.311,-7.379 7.38,-7.379 21.705,0 39.363,-17.659 39.363,-39.363 0,-21.705 -17.658,-39.363 -39.363,-39.363 -21.706,0 -39.365,17.658 -39.365,39.363 v 29.442 c 0,28.005 -15.251,44.738 -28.045,53.843 l -5.632,4.008 5.632,4.008 c 12.794,9.105 28.045,25.838 28.045,53.843 v 29.443 c 0,21.705 17.659,39.364 39.365,39.364 21.705,0 39.363,-17.659 39.363,-39.364 C 39.363,98.761 21.705,81.102 0,81.102 c -4.069,0 -7.38,-3.31 -7.38,-7.379 0,-4.069 3.311,-7.379 7.38,-7.379 29.842,0 54.121,24.279 54.121,54.122 0,29.843 -24.279,54.121 -54.121,54.121 -29.844,0 -54.123,-24.278 -54.123,-54.121 V 91.023 c 0,-39.763 -38.623,-50.249 -40.268,-50.675 -3.37,-0.836 -5.686,-3.779 -5.686,-7.168 0,-3.4 2.291,-6.341 5.571,-7.155 1.698,-0.439 40.383,-10.925 40.383,-50.704 v -29.442 c 0,-29.843 24.279,-54.122 54.123,-54.122 29.842,0 54.121,24.279 54.121,54.122 C 54.121,-24.279 29.842,0 0,0"
             style="fill:#1d2055;fill-opacity:1;fill-rule:nonzero;stroke:none"
             id="path28" /></g><g
           id="g30"
           transform="translate(377.6738,388.7969)"><path
             d="M 0,0 C -15.4,0 -27.931,12.529 -27.931,27.93 -27.931,43.332 -15.4,55.861 0,55.861 15.401,55.861 27.931,43.332 27.931,27.93 27.931,12.529 15.401,0 0,0 m -142.419,0 c -15.401,0 -27.931,12.529 -27.931,27.93 0,15.402 12.53,27.931 27.931,27.931 15.401,0 27.931,-12.529 27.931,-27.931 0,-15.401 -12.53,-27.93 -27.931,-27.93 M 0,70.619 c -18.185,0 -34.401,-11.569 -40.352,-28.789 l -1.556,-4.505 -4.552,1.414 c -7.563,2.349 -15.878,3.54 -24.713,3.54 -8.859,0 -17.195,-1.197 -24.774,-3.559 l -4.557,-1.42 -1.557,4.512 c -5.945,17.23 -22.164,28.807 -40.358,28.807 -23.539,0 -42.689,-19.15 -42.689,-42.689 0,-23.538 19.15,-42.688 42.689,-42.688 19.859,0 37.386,14.074 41.674,33.467 l 0.506,2.29 2.097,1.048 c 4.089,2.044 13.03,5.474 26.969,5.474 13.86,0 22.785,-3.4 26.872,-5.427 l 2.113,-1.047 0.506,-2.302 C -37.407,-0.668 -19.877,-14.758 0,-14.758 c 23.539,0 42.689,19.15 42.689,42.688 0,23.539 -19.15,42.689 -42.689,42.689"
             style="fill:#1d2055;fill-opacity:1;fill-rule:nonzero;stroke:none"
             id="path32" /></g><g
           id="g34"
           transform="translate(169.3755,455.3315)"><path
             d="m 0,0 c 1.149,-2.763 3.826,-4.548 6.82,-4.548 0.969,0 1.921,0.192 2.828,0.568 3.755,1.562 5.54,5.889 3.979,9.647 C 6.861,21.94 3.43,39.193 3.43,56.945 c 0,73.7 59.959,133.659 133.659,133.659 73.7,0 133.659,-59.959 133.659,-133.659 0,-17.755 -3.431,-35.008 -10.197,-51.278 -0.757,-1.821 -0.759,-3.826 -0.008,-5.648 0.751,-1.822 2.168,-3.243 3.988,-3.999 0.907,-0.378 1.859,-0.569 2.829,-0.569 2.993,0 5.669,1.785 6.818,4.549 7.517,18.075 11.328,37.234 11.328,56.945 0,81.838 -66.58,148.417 -148.417,148.417 -81.837,0 -148.417,-66.579 -148.417,-148.417 C -11.328,37.238 -7.517,18.078 0,0"
             style="fill:#1d2055;fill-opacity:1;fill-rule:nonzero;stroke:none"
             id="path36" /></g><g
           id="g38"
           transform="translate(303.5151,488.4424)"><path
             d="m 0,0 -0.11,53.932 c 0.069,0.835 0.113,1.677 0.113,2.529 0,0.9 -0.047,1.789 -0.123,2.668 l -0.112,55.299 c 0,11.512 -9.332,20.844 -20.844,20.844 -9.245,0 -17.072,-6.023 -19.801,-14.356 -0.027,0.003 -0.055,0.004 -0.081,0.007 -0.581,-1.908 -0.899,-3.93 -0.899,-6.026 0,-10.457 7.778,-19.109 17.848,-20.536 0.625,3.727 2.342,7.307 5.181,10.205 1.189,1.214 3.135,1.234 4.348,0.045 1.213,-1.188 1.233,-3.135 0.045,-4.348 -2.319,-2.368 -3.533,-5.406 -3.675,-8.482 0.056,-0.234 0.094,-0.473 0.094,-0.724 0,-0.238 -0.032,-0.466 -0.084,-0.688 0.191,-3.097 1.468,-6.137 3.853,-8.474 1.213,-1.188 1.232,-3.135 0.044,-4.348 -0.603,-0.615 -1.399,-0.923 -2.196,-0.923 -0.777,0 -1.553,0.293 -2.152,0.878 -3.039,2.978 -4.851,6.732 -5.473,10.643 -13.466,1.467 -23.982,12.903 -23.982,26.752 0,2.099 0.249,4.14 0.706,6.101 -11.552,-1.055 -21.236,-8.556 -25.415,-18.885 -12.831,-3.53 -22.268,-15.244 -22.338,-29.181 -8.56,-2.593 -14.793,-10.538 -14.793,-19.944 0,-5.206 1.92,-9.954 5.075,-13.607 -0.026,-0.04 -0.049,-0.082 -0.075,-0.122 3.341,-2.995 7.875,-4.42 12.397,-4.42 h 0.047 c 12.593,0.028 18.329,8.859 18.329,17.052 0,1.698 1.376,3.074 3.074,3.074 5.597,0 12.104,5.27 12.104,12.064 -0.02,4.695 -2.149,8.375 -5.902,10.336 -1.389,-2.839 -3.611,-5.305 -6.559,-6.981 -0.48,-0.272 -1.002,-0.402 -1.518,-0.402 -1.068,0 -2.108,0.559 -2.675,1.556 -0.839,1.476 -0.322,3.353 1.154,4.192 4.854,2.759 6.559,8.954 3.8,13.808 -0.839,1.476 -0.322,3.353 1.154,4.191 1.474,0.841 3.353,0.323 4.193,-1.153 1.644,-2.894 2.297,-6.083 2.075,-9.178 6.524,-2.804 10.395,-8.823 10.427,-16.356 0,-8.732 -6.891,-16.492 -15.346,-17.972 -1.259,-10.513 -9.55,-20.348 -24.297,-20.38 h -0.059 c -5.362,0 -10.919,1.602 -15.31,4.954 -1.346,-3.436 -2.088,-7.174 -2.088,-11.087 0,-16.807 13.624,-30.431 30.43,-30.431 0.214,0 0.422,0.019 0.635,0.024 -0.936,0.939 -1.828,1.931 -2.627,3.019 -4.153,5.658 -5.855,12.594 -4.79,19.531 0.258,1.677 1.836,2.823 3.505,2.573 1.679,-0.258 2.831,-1.828 2.572,-3.506 -0.814,-5.312 0.488,-10.626 3.67,-14.959 1.615,-2.2 3.618,-4.009 5.891,-5.368 0.016,0.004 0.031,0.008 0.046,0.012 4.044,-1.987 8.591,-3.107 13.401,-3.107 3.634,0 7.115,0.643 10.345,1.813 -0.045,0.106 -0.093,0.211 -0.126,0.324 -0.738,2.486 -1.112,5.07 -1.112,7.68 0,2.73 0.411,5.364 1.171,7.849 -6.815,5.039 -10.967,13.118 -10.967,21.663 0,13.85 10.517,25.286 23.984,26.753 0.049,4.893 1.656,9.618 4.705,13.554 1.039,1.343 2.967,1.588 4.314,0.549 1.341,-1.04 1.588,-2.971 0.548,-4.314 -2.688,-3.471 -3.864,-7.782 -3.311,-12.137 0.554,-4.356 2.771,-8.235 6.242,-10.924 1.343,-1.039 1.589,-2.97 0.549,-4.313 -0.605,-0.782 -1.514,-1.192 -2.433,-1.192 -0.657,0 -1.32,0.21 -1.88,0.643 -3.96,3.067 -6.708,7.271 -7.971,12.032 -10.435,-1.088 -18.598,-9.933 -18.598,-20.651 0,-6.232 2.712,-11.953 7.375,-15.868 4.688,7.935 13.324,13.271 23.188,13.271 1.698,0 3.074,-1.376 3.074,-3.074 0,-1.698 -1.376,-3.075 -3.074,-3.075 -11.451,0 -20.767,-9.316 -20.767,-20.766 0,-1.797 0.242,-3.573 0.694,-5.295 0.035,0.022 0.073,0.04 0.108,0.063 2.244,-9.092 10.43,-15.842 20.215,-15.842 10.971,0 19.942,8.482 20.762,19.243 L 0.003,-1.694 0,-0.131 c 0,0.022 0.003,0.042 0.003,0.063 C 0.003,-0.045 0,-0.023 0,0"
             style="fill:#3b53a4;fill-opacity:1;fill-rule:nonzero;stroke:none"
             id="path40" /></g><g
           id="g42"
           transform="translate(387.9707,559.5474)"><path
             d="m 0,0 c -1.004,-0.519 -2.211,-0.444 -3.144,0.192 -0.933,0.637 -1.442,1.735 -1.325,2.859 0.321,3.073 -0.574,6.087 -2.52,8.487 -1.867,2.302 -4.492,3.763 -7.417,4.162 -1.146,-2.227 -2.881,-4.102 -5.086,-5.417 -0.493,-0.294 -1.036,-0.434 -1.572,-0.434 -1.047,0 -2.069,0.535 -2.644,1.501 -0.869,1.458 -0.392,3.345 1.066,4.215 1.697,1.011 2.896,2.621 3.38,4.535 0.485,1.913 0.195,3.9 -0.816,5.595 -0.87,1.459 -0.392,3.346 1.066,4.216 1.458,0.871 3.346,0.392 4.216,-1.067 1.311,-2.198 1.944,-4.665 1.899,-7.162 4.206,-0.736 7.967,-2.922 10.684,-6.271 1.94,-2.392 3.197,-5.182 3.704,-8.137 4.7,1.545 9.598,1.803 14.27,0.961 -2.426,11.017 -10.799,19.801 -21.602,22.773 -4.513,11.154 -15.441,19.026 -28.213,19.026 -1.09,0 -2.162,-0.073 -3.221,-0.186 -8.946,-2.312 -15.582,-10.427 -15.582,-20.084 0,-11.452 9.316,-20.767 20.766,-20.767 1.392,0 2.612,-0.936 2.97,-2.281 0.36,-1.345 -0.23,-2.764 -1.437,-3.458 -3.539,-2.038 -6.072,-5.331 -7.133,-9.274 -1.062,-3.942 -0.525,-8.063 1.513,-11.601 3.848,-6.689 12.018,-9.349 18.979,-6.528 -1.351,3.385 -1.692,7.205 -0.705,10.995 0.425,1.644 2.112,2.624 3.749,2.201 1.643,-0.428 2.63,-2.107 2.2,-3.75 -1.606,-6.173 2.109,-12.502 8.281,-14.108 1.644,-0.428 2.629,-2.107 2.2,-3.75 -0.358,-1.384 -1.606,-2.301 -2.972,-2.301 -0.257,0 -0.518,0.033 -0.777,0.1 -3.494,0.909 -6.469,2.811 -8.714,5.32 -2.88,-1.334 -5.934,-1.984 -8.957,-1.984 -7.423,0 -14.651,3.854 -18.614,10.736 -2.856,4.963 -3.61,10.74 -2.121,16.269 0.83,3.083 2.302,5.883 4.302,8.252 -11.339,3.168 -19.68,13.593 -19.68,25.929 0,11.916 7.787,22.042 18.538,25.573 -3.771,5.338 -9.977,8.83 -17.011,8.83 -11.512,0 -20.844,-9.332 -20.844,-20.844 l -0.105,-51.529 c 5.271,5.116 12.451,8.274 20.359,8.274 1.698,0 3.075,-1.376 3.075,-3.074 0,-1.699 -1.377,-3.075 -3.075,-3.075 -8.813,0 -16.483,-4.961 -20.379,-12.234 l -0.108,-52.79 c 0,-0.023 -0.003,-0.045 -0.003,-0.068 0,-0.021 0.003,-0.041 0.003,-0.063 l -0.003,-1.563 0.081,0.025 c 0.82,-10.761 9.791,-19.243 20.763,-19.243 7.495,0 14.041,3.97 17.708,9.91 -10.159,7.621 -13.799,21.656 -7.972,33.445 0.117,0.237 0.267,0.443 0.432,0.635 -4.05,2.236 -7.323,5.636 -9.401,9.877 -0.747,1.524 -0.117,3.366 1.407,4.114 1.526,0.746 3.366,0.116 4.114,-1.408 1.954,-3.987 5.344,-6.974 9.545,-8.412 4.201,-1.437 8.71,-1.152 12.696,0.801 1.527,0.748 3.367,0.118 4.115,-1.407 0.747,-1.525 0.116,-3.367 -1.407,-4.114 -3.167,-1.553 -6.577,-2.336 -10.004,-2.336 -1.897,0 -3.8,0.245 -5.672,0.727 -0.021,-0.405 -0.121,-0.814 -0.313,-1.201 -4.256,-8.612 -1.949,-18.765 4.959,-24.813 0.002,0.008 0.005,0.015 0.007,0.024 4.662,-2.903 10.163,-4.585 16.059,-4.585 4.785,0 9.309,1.11 13.337,3.078 6.058,4.262 9.552,11.706 8.356,19.511 -0.258,1.679 0.894,3.248 2.572,3.505 1.679,0.255 3.248,-0.895 3.505,-2.573 1.252,-8.159 -1.416,-16.028 -6.589,-21.698 0.374,-0.014 0.743,-0.042 1.12,-0.042 16.807,0 30.431,13.624 30.431,30.431 0,6.222 -1.87,12.005 -5.075,16.824 3.155,3.653 5.075,8.401 5.075,13.607 0,9.183 -5.947,16.958 -14.194,19.736 C 11.59,3.232 5.486,2.835 0,0"
             style="fill:#3b53a4;fill-opacity:1;fill-rule:nonzero;stroke:none"
             id="path44" /></g></g></g></g></svg>
