<svg width="80" height="80" viewBox="0 0 80 80" fill="none" xmlns="http://www.w3.org/2000/svg">
<path d="M41.5825 0.0756696C42.4018 0.0504464 43.2212 0.176562 44.0406 0.327901C48.6495 1.16027 52.6182 3.17812 55.9213 6.48236C59.0963 9.66048 61.0935 13.444 61.8617 17.8328C62.681 22.5748 61.9385 27.1149 59.6852 31.4029C59.634 31.529 59.5572 31.6299 59.506 31.7308C58.9939 32.5631 57.8929 32.8406 57.0223 32.3866C56.1517 31.9073 55.7933 30.8732 56.2798 29.9904C56.8431 28.931 57.3296 27.8464 57.688 26.7114C59.6596 20.5317 57.9697 13.671 53.3608 9.05513C50.7235 6.43191 47.5997 4.66629 43.9125 3.98526C37.7417 2.825 32.2878 4.33839 27.6533 8.55066C24.7088 11.1991 22.9164 14.5033 22.2251 18.3625C21.5337 22.2469 22.097 25.9799 23.915 29.5111C23.9918 29.6877 24.0942 29.8643 24.1967 30.0156C24.6319 30.8984 24.2991 31.9326 23.4285 32.3866C22.5579 32.8658 21.4569 32.5884 20.9448 31.756C20.7656 31.4533 20.612 31.1506 20.4583 30.8227C19.3829 28.6535 18.666 26.3835 18.4099 23.9873C17.6674 17.177 19.7414 11.2748 24.6063 6.38147C27.7814 3.17812 31.6733 1.21071 36.1286 0.378348C37.0248 0.201786 37.9466 0.0756696 38.8683 0.0756696C39.0732 0.0504464 39.3036 0.151339 39.5085 0H41.0704C41.2496 0.151339 41.4288 0.0504464 41.5825 0.0756696Z" fill="#00125B"/>
<path d="M0.15363 56.2733C0.614521 53.0447 3.0726 50.5981 6.32444 50.1188C6.73412 50.0684 7.1438 50.0179 7.52788 50.0179C7.70711 50.0179 7.78393 50.0684 7.80953 50.2449C7.88635 50.6737 7.96316 51.0773 7.96316 51.5061C7.96316 51.9097 7.80953 52.1871 7.45106 52.3889C7.06699 52.6159 6.68291 52.7673 6.27323 52.9438C5.6075 53.2213 5.01859 53.5744 4.50649 54.0789C3.09821 55.4661 2.68853 57.1309 3.30305 58.9974C3.89196 60.8387 5.17222 61.9737 7.1182 62.2764C8.96176 62.5539 10.5493 62.0746 11.7783 60.6369C12.3672 59.9307 12.7001 59.0983 12.8281 58.2155C13.0074 56.8282 13.033 55.4409 12.9305 54.0284C12.8281 52.5403 12.8537 51.0269 13.2378 49.5639C13.8011 47.3695 15.0814 45.6795 17.0017 44.4436C17.5138 44.1157 18.0515 43.8383 18.5893 43.586C18.6917 43.5356 18.8197 43.5104 18.8965 43.4095C18.8197 43.3338 18.6917 43.3086 18.6149 43.2581C17.4626 42.7537 16.4128 42.0979 15.5166 41.2403C14.262 40.0296 13.5195 38.5414 13.161 36.8514C12.8281 35.3128 12.8793 33.749 12.9561 32.1851C13.033 30.8735 13.033 29.5367 12.7513 28.2503C12.4184 26.7622 11.5991 25.5767 10.1652 24.8956C7.68151 23.7101 4.55769 24.8704 3.50789 27.3675C2.99579 28.5782 2.86776 29.8142 3.35426 31.0753C3.84075 32.3365 4.78814 33.1941 6.04279 33.6733C6.32444 33.7742 6.6061 33.8751 6.88775 34.0012C7.06699 34.0769 7.24622 34.1778 7.39985 34.2787C8.01437 34.6822 8.27042 35.2371 8.1424 35.9686C8.09119 36.2461 8.01437 36.5235 7.91195 36.801C7.86074 36.9523 7.78393 37.028 7.60469 37.0028C5.0698 36.7001 2.86776 35.7668 1.35707 33.6229C0.665731 32.6392 0.25605 31.5546 0.15363 30.3438C0.0768151 30.1673 0.10242 29.7637 0 29.5619V28.7043C0.230445 27.418 0.537706 26.1568 1.28025 25.047C2.66292 23.0291 4.60891 21.8689 7.06699 21.5662C11.343 21.0113 15.0302 23.8867 15.8239 27.9476C16.0287 29.007 16.0544 30.1168 16.0544 31.2014C16.08 32.286 16.0287 33.3454 15.9519 34.4048C15.7727 36.5992 16.5921 38.39 18.3588 39.7521C19.1014 40.307 19.8951 40.7863 20.7657 41.1394C21.8411 41.5934 22.4556 42.5266 22.3788 43.6365C22.3276 44.4436 21.9179 45.0742 21.2522 45.4778C20.6633 45.8309 20.0487 46.184 19.4342 46.4615C19.127 46.5876 18.8453 46.7389 18.5636 46.9155C17.0529 47.8487 16.2592 49.2108 16.08 50.926C15.9519 51.9601 16.0544 53.0195 16.0544 54.0537C16.08 55.8193 16.0544 57.5849 15.7471 59.3505C15.4654 61.0657 14.5693 62.453 13.1866 63.5376C10.7029 65.4798 7.01578 65.8833 4.25043 64.4204C1.92038 63.2097 0.614521 61.2675 0.15363 58.7199C0.128025 58.5686 0.0768151 56.9543 0.15363 56.2733Z" fill="#00125B"/>
<path d="M23.147 64.3951C23.147 65.1265 23.147 65.858 23.147 66.5643C23.147 66.6904 23.0446 66.7408 22.9677 66.7661C22.6093 66.9426 22.2508 67.094 21.8923 67.2705C21.4058 67.5228 20.9193 67.8002 20.4841 68.1029C19.6135 68.7335 19.0502 69.5406 18.8453 70.5748C18.6149 71.6593 18.5893 72.7439 18.8965 73.8286C19.1014 74.5852 19.5367 75.1654 20.2024 75.6194C21.201 76.2752 22.3276 76.6283 23.5311 76.704C24.2736 76.7544 24.9137 76.5274 25.5282 76.0986C26.2196 75.5942 26.7573 74.9384 27.295 74.2826C28.0631 73.3493 28.3448 72.3151 28.3192 71.1044C28.1656 66.1102 28.268 61.0908 28.2424 56.0966C28.2168 53.423 28.2424 50.7745 28.2424 48.1009C28.2424 47.3694 28.1912 46.6632 28.3704 45.9317C28.7033 44.6453 29.4714 43.7625 30.8029 43.4598C31.6735 43.258 32.4928 43.4346 33.2866 43.7625C34.234 44.1661 35.1813 44.494 36.1799 44.7462C39.611 45.6038 42.9653 45.2759 46.2171 43.9391C46.7804 43.712 47.3181 43.485 47.9326 43.4346C49.7762 43.2832 51.3125 44.4183 51.6454 46.2091C51.7222 46.5623 51.7222 46.8902 51.7222 47.2433C51.7222 52.9437 51.7222 58.6442 51.7222 64.3446C51.7222 66.7408 51.7222 69.1623 51.7478 71.5585C51.7478 72.4413 51.8502 73.3493 52.1831 74.1817C52.7976 75.7203 53.9498 76.5779 55.5629 76.8553C56.4079 77.0067 57.2529 76.9814 58.0978 76.7797C59.2501 76.5022 60.1718 75.8969 60.7608 74.8879C61.4521 73.7529 61.785 72.5169 61.5545 71.1801C61.4009 70.3982 61.0424 69.7172 60.5047 69.137C59.8902 68.4812 59.1733 67.9515 58.3283 67.6236C57.8418 67.4471 57.3809 67.2453 56.8944 67.0939C56.7152 67.0435 56.664 66.9426 56.664 66.7661C56.6896 66.1355 56.664 65.5301 56.664 64.8995C56.664 64.6221 56.664 64.5969 56.9456 64.6221C59.9414 64.723 62.2971 65.9589 63.7309 68.5821C65.8306 72.3908 64.3199 77.0067 60.3767 79.0498C59.0708 79.7308 57.6625 80.0839 56.1775 79.983C53.1817 79.8317 50.2115 77.9399 49.2129 75.0393C48.8032 73.879 48.6496 72.6683 48.624 71.4576C48.5728 69.6415 48.5728 67.8506 48.5472 66.0346C48.5216 61.6205 48.5216 57.2317 48.5216 52.8176C48.5216 51.0268 48.496 49.2359 48.5216 47.4199C48.5216 47.0667 48.3935 46.7388 48.2655 46.3857C48.1375 46.3857 48.0095 46.4614 47.907 46.4866C46.2171 47.1676 44.476 47.6973 42.658 47.9495C39.739 48.3783 36.8457 48.1513 34.0547 47.2181C33.261 46.9658 32.5184 46.6632 31.7503 46.31C31.6478 46.2596 31.5454 46.1839 31.3918 46.1839C31.3662 46.5875 31.3406 46.9911 31.315 47.3946C31.2382 48.5045 31.2382 49.6143 31.2382 50.7241C31.2382 54.3058 31.2382 57.8875 31.2382 61.4692C31.2382 64.4203 31.2382 67.3966 31.187 70.3477C31.187 71.281 31.2126 72.2395 31.0845 73.1727C30.6492 76.4013 28.3192 78.8732 25.1186 79.6803C20.3816 80.8658 15.8751 77.5364 15.1838 73.1475C14.7229 70.2216 15.8239 67.9011 18.1796 66.1355C19.4855 65.1518 20.9962 64.6221 22.6093 64.3698C22.8141 64.4203 22.9421 64.4203 23.147 64.3951Z" fill="#00125B"/>
<path d="M79.9901 56.9036C79.9901 57.2819 79.9901 57.6603 79.9901 58.0134C79.9901 59.7034 79.35 61.1663 78.3001 62.4527C76.8151 64.2688 74.8691 65.1768 72.4878 65.2777C70.4394 65.3533 68.5959 64.7984 66.9827 63.5625C65.4208 62.3518 64.5247 60.7879 64.2942 58.8205C64.0382 56.727 64.0638 54.6083 64.0894 52.5147C64.115 51.6572 64.0894 50.7996 63.8589 49.9672C63.4236 48.3781 62.425 47.2683 60.94 46.5621C60.2998 46.2594 59.6597 45.9063 59.0452 45.5531C58.0978 45.0235 57.5857 44.2415 57.6881 43.1822C57.7649 42.148 58.3539 41.4922 59.3012 41.0634C60.5047 40.5337 61.6057 39.8527 62.5275 38.8942C63.7821 37.5574 64.2686 35.9683 64.115 34.2027C64.0126 33.0929 63.9613 31.9831 64.0382 30.8733C64.0894 29.9652 64.0894 29.0572 64.243 28.1744C64.7807 24.8701 67.1876 22.3478 70.2346 21.6668C74.2546 20.7588 78.8122 23.0036 79.8621 27.4177C79.9645 27.8212 79.9901 28.2248 79.9901 28.6536C79.9901 29.0572 79.9901 29.4608 79.9901 29.8643C79.9645 31.9831 79.0427 33.6982 77.4296 35.0603C76.2005 36.0945 74.7154 36.6494 73.1279 36.9016C73.0767 36.9016 73.0255 36.9268 72.9743 36.9268C72.1805 37.0277 72.3342 37.1034 72.1037 36.3971C72.0525 36.271 72.0269 36.1197 72.0013 35.9936C71.8733 35.3125 72.1037 34.7576 72.667 34.3288C73.0511 34.0514 73.4608 33.9 73.8961 33.7487C74.4082 33.5721 74.9203 33.3199 75.3556 32.992C76.8663 31.7813 77.3528 30.1922 76.9687 28.3509C76.8663 27.8969 76.7126 27.4681 76.4822 27.0393C75.7141 25.5512 74.4594 24.744 72.7951 24.517C72.0781 24.4161 71.3612 24.4161 70.6442 24.6431C68.9799 25.1476 67.9813 26.3079 67.4436 27.8969C67.2132 28.5779 67.1876 29.259 67.162 29.9652C67.1108 30.8228 67.1364 31.7056 67.1876 32.5632C67.29 34.1775 67.2644 35.7918 66.8547 37.3808C66.317 39.4239 65.1904 41.0382 63.4236 42.2237C62.8347 42.6273 62.2202 42.9552 61.5801 43.2578C61.4777 43.3083 61.324 43.3335 61.2472 43.4344C61.324 43.5605 61.4521 43.5857 61.5801 43.6362C62.7323 44.1659 63.7821 44.8217 64.6783 45.7045C65.9329 46.9404 66.6499 48.4034 66.9827 50.1185C67.2388 51.4301 67.2644 52.7418 67.162 54.0534C67.0852 55.4911 67.0852 56.9288 67.29 58.3413C67.6229 60.7123 69.5944 62.3518 72.0269 62.4022C74.357 62.4527 76.4566 60.9897 76.9431 58.5431C77.3272 56.6261 76.7126 55.0371 75.2019 53.7759C74.7923 53.448 74.3314 53.1958 73.8449 52.994C73.4608 52.8426 73.1023 52.6913 72.7439 52.4895C72.283 52.2373 72.1037 51.8589 72.1549 51.3797C72.1805 51.0518 72.2318 50.7239 72.283 50.3708C72.3342 50.0681 72.3342 50.0681 72.6414 50.0681C76.0213 50.0681 78.7354 52.1112 79.6828 55.0371C79.8877 55.6424 80.0413 56.2478 79.9901 56.9036Z" fill="#00125B"/>
<path d="M49.5969 37.2294H30.5979V39.2725H49.5969V37.2294Z" fill="#00125B"/>
<path d="M33.1585 37.7842C33.1585 40.8362 30.6492 43.308 27.551 43.308C24.4528 43.308 21.9435 40.8362 21.9435 37.7842C21.9435 34.7322 24.4528 32.2603 27.551 32.2603C30.6492 32.2603 33.1585 34.7322 33.1585 37.7842ZM27.551 34.8835C25.9379 34.8835 24.6064 36.1699 24.6064 37.7842C24.6064 39.3732 25.9123 40.6848 27.551 40.6848C29.1641 40.6848 30.47 39.3984 30.47 37.7842C30.4956 36.1699 29.1641 34.8835 27.551 34.8835Z" fill="#00125B"/>
<path d="M58.1491 38.188C58.1491 41.24 55.6398 43.7119 52.5416 43.7119C49.4434 43.7119 46.9341 41.24 46.9341 38.188C46.9341 35.136 49.4434 32.6641 52.5416 32.6641C55.6398 32.6894 58.1491 35.1612 58.1491 38.188ZM52.5416 35.3126C50.9285 35.3126 49.597 36.5989 49.597 38.2132C49.597 39.8023 50.9029 41.1139 52.5416 41.1139C54.1547 41.1139 55.4606 39.8275 55.4606 38.2132C55.4862 36.5989 54.1803 35.3126 52.5416 35.3126Z" fill="#00125B"/>
<path d="M27.551 17.6306C28.3703 17.8072 29.1129 18.3369 29.5481 19.0936C29.7274 19.3963 29.8298 19.6989 29.881 20.0016C30.7516 19.9512 31.4941 19.6485 31.8526 19.1188C32.1599 18.69 32.1599 18.1351 31.8782 17.5297L31.699 17.1766L32.1086 17.1009C32.8768 16.9748 33.7986 16.4199 34.0034 15.7893C34.2851 14.8309 34.1058 13.9228 33.4145 12.8382C33.2353 12.9391 33.056 13.0148 32.8512 13.0652C31.9038 13.3427 30.8796 13.1661 29.8042 12.5608C29.4969 13.0905 28.7288 14.1498 27.4741 14.4777C27.1157 14.5786 26.7572 14.6039 26.3987 14.6039C26.1939 14.6039 25.989 14.5786 25.7842 14.5534C24.4784 15.0074 24.4527 16.9496 24.8112 17.9333C25.5026 17.6811 26.5268 17.4288 27.551 17.6306Z" fill="#00125B"/>
<path d="M27.2693 13.8981C28.652 13.545 29.3433 12.0316 29.3689 12.0063L29.5225 11.6784L29.8298 11.8802C30.854 12.536 31.7758 12.7378 32.6464 12.4856C33.901 12.1072 34.6435 10.8461 34.8228 10.493C34.5923 10.1146 34.4131 9.68581 34.2851 9.1309L34.874 9.00479C35.1044 9.98849 35.5397 10.6191 36.1286 10.9217C36.9992 11.3253 37.9978 10.8713 37.9978 10.8713L38.2538 11.4262C38.2282 11.4514 37.6393 11.7037 36.9224 11.7037C36.5895 11.7037 36.2054 11.6532 35.847 11.4767C35.6165 11.3758 35.3861 11.2244 35.2069 11.0226C34.9764 11.401 34.5411 12.0316 33.901 12.5108C34.4387 13.3432 34.9764 14.5287 34.5667 15.9412C34.3619 16.6222 33.6449 17.1771 32.9024 17.4798C34.157 18.3121 35.2325 18.5896 36.0774 18.2869C37.1784 17.9086 37.5625 16.6979 37.5625 16.6726L38.1514 16.8492C38.1258 16.8996 37.6905 18.3878 36.2823 18.8671C36.0006 18.9679 35.6933 19.0184 35.3861 19.0184C34.5667 19.0184 33.6706 18.6905 32.672 18.0599C32.7488 18.5644 32.6464 19.0436 32.3647 19.4472C32.0574 19.9012 31.5453 20.2543 30.9308 20.4309C32.0574 20.5318 33.3633 21.0363 34.0034 22.6758C34.3619 21.8182 35.0532 21.0867 35.975 20.7083C37.0504 20.2543 38.2538 20.33 39.3549 20.8849V8.57599C39.3549 6.70947 38.4843 5.24653 36.6663 5.24653C34.8484 5.24653 33.7474 6.7347 33.5169 7.46617C31.3405 6.53291 29.2153 8.55077 29.2153 10.0137C27.3461 9.83715 25.5538 11.855 25.7842 13.9485C26.2451 14.0494 26.7572 14.0242 27.2693 13.8981Z" fill="#00125B"/>
<path d="M36.1798 21.2888C35.2069 21.6924 34.5155 22.5752 34.3619 23.5589L34.3107 23.9373L33.9522 23.7859C33.1328 23.458 32.1342 23.6094 31.5709 23.912C30.6235 24.4165 29.9322 25.6272 30.5723 27.1658C31.6734 26.8884 32.7744 27.3172 33.6193 28.3765C34.6435 27.5946 36.0006 27.6451 37.3321 28.5531L36.9736 29.0576C35.8726 28.3261 34.7972 28.2504 34.0034 28.8558C33.2609 29.4359 32.9536 30.4701 33.2609 31.3277L32.672 31.5294C32.3391 30.6214 32.5439 29.562 33.1585 28.8053C32.4671 27.8973 31.5709 27.519 30.6748 27.7712C29.753 28.0234 29.0616 28.8558 29.0104 29.7638L28.3959 29.7386C28.4471 28.7549 29.0872 27.8216 29.9834 27.3928C29.2665 25.602 30.0602 24.0382 31.2893 23.3823C31.8014 23.1049 32.6463 22.9283 33.4657 23.0544C32.6976 20.9105 30.726 20.8853 29.5737 21.087L29.0616 21.1879L29.2409 20.7087C29.3689 20.3303 29.2921 19.8511 29.0104 19.3971C28.652 18.7917 28.063 18.3629 27.4229 18.2368C26.3987 18.035 25.3233 18.3882 24.6576 18.6908C23.5054 19.6745 23.0189 22.2725 24.8624 23.7355C23.9918 25.2741 25.8866 26.8884 26.2707 27.1406C26.3219 30.0413 29.0104 31.706 30.6235 31.4285C32.1855 34.3797 39.3549 35.6408 39.3549 29.108V21.5915C38.3051 20.9861 37.1784 20.8853 36.1798 21.2888Z" fill="#00125B"/>
<path d="M55.3069 18.5641C55.0764 18.8163 54.7948 19.0181 54.4875 19.1946C53.9498 19.4721 53.3865 19.5478 52.9 19.5225C52.4903 19.5225 52.1063 19.4721 51.7478 19.346C51.4661 20.2792 50.9796 20.9603 50.2371 21.3386C49.6738 21.6413 49.0849 21.7422 48.5215 21.7422C47.5998 21.7422 46.8572 21.4647 46.806 21.4647V21.4395C46.806 21.4395 46.806 21.4395 46.7804 21.4647C46.1147 21.9944 45.2441 22.2719 44.1943 22.2719C43.8614 22.2719 43.5286 22.2467 43.1701 22.1962C42.1203 22.0449 41.2497 21.3891 40.6608 20.7837V27.1904C40.84 27.6949 41.1729 28.3254 41.813 28.7542C42.4532 29.183 43.2725 29.3091 44.2711 29.1074C44.2199 28.502 44.3735 27.7958 44.8856 26.9886L45.3977 27.3165C43.9895 29.5109 45.7818 30.6964 45.8586 30.7469L45.5258 31.2513C45.5002 31.2513 44.6808 30.6964 44.3479 29.6875C44.0151 29.7632 43.6822 29.7884 43.3749 29.7884C42.6324 29.7884 41.9923 29.6118 41.429 29.2335C41.0961 29.0065 40.84 28.7542 40.6352 28.4768V29.0065C40.6352 35.5393 47.8046 34.2781 49.3665 31.327C49.3921 31.327 49.3921 31.327 49.4177 31.327C49.725 30.8225 50.0066 30.1163 49.9554 29.3596C49.9042 28.4011 49.3921 27.4931 48.4191 26.6607C47.9838 27.1904 47.3437 27.6696 46.2939 27.9219L46.1403 27.3417C48.9824 26.6355 48.4959 24.0123 48.4703 23.9114L49.0849 23.7853C49.0849 23.8105 49.3153 24.996 48.7264 26.131C49.8786 27.0895 50.4931 28.1741 50.5443 29.3091C50.5699 30.0658 50.3651 30.7721 50.0835 31.3018C51.3381 31.1252 52.8488 30.1163 53.4377 28.4516C53.4377 28.4263 54.0522 26.7868 53.2841 25.3743C52.7976 24.4663 51.8246 23.8357 50.4419 23.5078L50.5956 22.9277C52.1831 23.306 53.2585 24.0375 53.8474 25.0969C54.1034 25.5761 54.2315 26.0806 54.2827 26.5346C54.9228 25.8788 55.7422 24.7437 55.1276 23.6339C57.0224 22.1458 56.4847 19.4973 55.3069 18.5641Z" fill="#00125B"/>
<path d="M47.2669 10.1148C46.8316 11.4012 45.7562 12.1579 45.1673 12.4858C45.6026 13.3181 45.6794 14.2262 45.6794 14.7054C46.2939 14.6802 47.0364 14.8315 47.8558 15.4117L47.4973 15.9161C45.3209 14.4532 44.0407 16.1684 43.9895 16.244L43.4774 15.8909C43.4774 15.8657 44.0407 15.109 45.0393 14.8315C45.0393 14.3271 44.9368 12.7632 43.887 11.9056C43.1445 11.2751 42.0435 11.0985 40.6352 11.3759V19.8762C41.1473 20.5067 42.0947 21.44 43.2469 21.6166C44.5784 21.8183 45.6282 21.6166 46.3707 21.0112C47.4461 20.1536 47.5486 18.7411 47.5486 18.7159L48.1631 18.7411C48.1631 18.7916 48.0863 20.0023 47.2413 20.986C47.7534 21.1121 48.9568 21.3391 49.8786 20.8346C50.4675 20.5067 50.8772 19.9266 51.1077 19.1195C50.8516 18.9934 50.6468 18.8168 50.4419 18.615C49.5457 17.6565 49.6482 16.3197 49.6738 16.244L50.2883 16.2945C50.2883 16.2945 50.2115 17.4295 50.9028 18.1862C51.0308 18.3375 51.1845 18.4384 51.3637 18.5393L51.5941 18.6402C51.6197 18.6402 53.0024 19.2204 54.129 18.6402C54.718 18.3375 55.102 17.8835 55.2813 17.3034C55.3325 17.1268 55.3581 16.9251 55.3837 16.7485C55.4093 15.79 55.102 14.7306 54.129 14.4784C54.6923 12.4858 53.3353 10.3922 51.6198 10.0139C51.9782 11.1742 51.9014 12.1831 51.4149 12.965C50.5443 14.4027 48.5984 14.6045 48.5215 14.6045L48.4703 13.9992C48.4959 13.9992 50.1603 13.8226 50.9028 12.6371C51.3125 11.9561 51.2357 11.1994 50.954 9.93823C51.0052 9.93823 50.9028 9.93823 50.954 9.93823C50.826 8.57618 49.0336 6.83578 47.0877 7.21413C47.5229 8.24828 47.5742 9.23198 47.2669 10.1148Z" fill="#00125B"/>
<path d="M44.3222 11.4257C44.5271 11.6022 44.7063 11.7788 44.8343 11.9806C45.3464 11.7031 46.2938 11.0221 46.6779 9.91229C46.9852 9.00425 46.8315 7.99533 46.2682 6.8855C45.8073 6.12881 44.8087 5.19555 43.3749 5.19555C41.5569 5.19555 40.6863 6.6585 40.6863 8.52501V10.7447C42.2226 10.442 43.4517 10.6942 44.3222 11.4257Z" fill="#00125B"/>
</svg>
